<svg width="23" height="23" viewBox="0 0 23 23" fill="none" xmlns="http://www.w3.org/2000/svg">
<path d="M19.6309 0H3.36914C1.51155 0 0 1.49037 0 3.32193V19.3558C0 21.1874 1.51155 22.6777 3.36914 22.6777H19.6309C21.4884 22.6777 23 21.1874 23 19.3558V3.32193C23 1.49037 21.4884 0 19.6309 0ZM11.5449 17.2741C8.20087 17.2741 5.48047 14.5918 5.48047 11.2946C5.48047 7.99738 8.20087 5.31509 11.5449 5.31509C14.889 5.31509 17.6094 7.99738 17.6094 11.2946C17.6094 14.5918 14.889 17.2741 11.5449 17.2741ZM18.2832 6.64387C17.1686 6.64387 16.2617 5.74971 16.2617 4.65071C16.2617 3.5517 17.1686 2.65755 18.2832 2.65755C19.3978 2.65755 20.3047 3.5517 20.3047 4.65071C20.3047 5.74971 19.3978 6.64387 18.2832 6.64387Z" fill="#1B262C"/>
<path d="M18.2832 3.98633C17.9114 3.98633 17.6094 4.28406 17.6094 4.65063C17.6094 5.01721 17.9114 5.31494 18.2832 5.31494C18.655 5.31494 18.957 5.01721 18.957 4.65063C18.957 4.28406 18.655 3.98633 18.2832 3.98633Z" fill="#1B262C"/>
<path d="M11.5449 6.64404C8.94437 6.64404 6.82812 8.7306 6.82812 11.2947C6.82812 13.8588 8.94437 15.9453 11.5449 15.9453C14.1455 15.9453 16.2617 13.8588 16.2617 11.2947C16.2617 8.7306 14.1455 6.64404 11.5449 6.64404Z" fill="#1B262C"/>
</svg>
