<svg width="29" height="23" viewBox="0 0 29 23" fill="none" xmlns="http://www.w3.org/2000/svg">
<path d="M10.4841 22.6777C9.26885 22.6777 8.01802 22.5807 6.75969 22.3862C4.54341 22.0433 2.2999 20.9003 1.66505 20.558L0 19.6604L1.8027 19.0759C3.77327 18.4371 4.972 18.0407 6.45588 17.42C4.97007 16.7106 3.82495 15.4344 3.27372 13.7846L2.85434 12.5293L3.19825 12.5811C2.87214 12.2571 2.61464 11.9281 2.41503 11.629C1.70515 10.5659 1.3293 9.26683 1.40927 8.15361L1.48817 7.05793L2.15346 7.31203C1.87281 6.78945 1.66998 6.23136 1.55078 5.64642C1.26026 4.2199 1.50339 2.70439 2.23558 1.37913L2.81511 0.330173L3.59017 1.24806C6.04144 4.15141 9.14621 5.87367 12.8312 6.37786C12.6806 5.3549 12.7934 4.36767 13.1667 3.48276C13.6013 2.4524 14.3744 1.57869 15.4018 0.955912C16.5429 0.264428 17.9266 -0.0706384 19.2982 0.0124412C20.7533 0.100594 22.0745 0.638181 23.1238 1.56812C23.6362 1.43684 24.0138 1.29669 24.524 1.10727C24.8311 0.99333 25.1793 0.863954 25.6149 0.715975L27.2204 0.170567L26.1734 3.11873C26.2425 3.11302 26.3137 3.10816 26.3881 3.10499L28.1024 3.02846L27.0891 4.39388C27.031 4.4721 27.0163 4.4943 26.9957 4.52495C26.914 4.64629 26.8124 4.79723 25.4215 6.62837C25.0733 7.08689 24.8995 7.68409 24.9318 8.31025C25.0551 10.6898 24.759 12.8426 24.0513 14.7089C23.3819 16.4745 22.3446 17.9893 20.9686 19.2114C19.2658 20.7234 17.0945 21.7586 14.5149 22.2879C13.2494 22.5475 11.8906 22.6777 10.4841 22.6777Z" fill="#1B262C"/>
</svg>
