<svg width="182" height="158" viewBox="0 0 182 158" fill="none" xmlns="http://www.w3.org/2000/svg">
<g clip-path="url(#clip0)">
<path opacity="0.24" d="M169.387 115.77C163.597 118.728 156.657 118.976 151.485 123.051C150.545 123.793 149.682 124.627 148.908 125.541C143.412 132.072 141.994 142.322 136.495 149.192C128.669 158.962 114.646 159.491 103.086 156.135C91.5259 152.779 80.6881 146.374 68.824 144.801C50.4378 142.375 29.277 151.159 14.6349 138.932C9.89456 134.967 6.66861 129.302 3.84382 123.613C3.84382 123.613 3.84382 123.593 3.82377 123.58C1.64751 119.23 -0.408404 114.448 0.0662945 109.526C0.42399 105.875 2.14561 102.573 3.82377 99.3769C8.98527 89.5626 18.2586 77.6268 19.8498 66.3033C21.3241 55.8699 15.6611 44.4427 22.4908 34.6384C27.5052 24.2652 37.3401 16.753 48.0977 15.1268C56.2913 13.8921 64.6019 15.8864 72.869 15.5083C88.5808 14.7922 102.785 5.67049 118.032 1.58815C133.279 -2.49419 152.936 0.942337 158.9 16.6192C162.911 27.2366 159.104 39.564 161.755 50.6666C165.358 65.7244 180.188 76.0273 181.862 91.49C182.922 101.278 177.664 111.524 169.387 115.77Z" fill="#EA5455"/>
<path d="M68.0958 47.914C72.5921 51.3271 73.9192 57.7484 72.5118 63.1792C71.1045 68.6101 67.4372 73.191 63.4224 77.1462C65.7876 76.7204 68.2213 76.8858 70.5074 77.6278C72.7934 78.3697 74.8611 79.6652 76.5267 81.3992C78.1423 83.1532 79.2906 85.2862 79.8655 87.6015C80.4404 89.9168 80.4234 92.3397 79.8162 94.6467C84.5231 91.2529 90.3739 89.8466 96.1072 90.7311C101.84 91.6156 106.997 94.72 110.464 99.3749C114.369 93.6864 118.778 87.6432 125.421 85.6555C131.127 83.9456 137.241 85.6254 142.954 87.3019C138.024 85.4447 135.182 79.86 135.577 74.6566C135.971 69.4533 139.097 64.7453 143.088 61.3355C139.745 61.8709 136.877 58.8694 135.399 55.8511C132.714 50.3501 132.269 44.0197 134.159 38.1967C125.09 40.7431 114.479 35.3022 111.384 26.4984C110.027 28.0853 108.363 29.3814 106.493 30.3089C104.624 31.2364 102.586 31.7762 100.502 31.8958C98.6262 31.9912 96.7486 31.7406 94.9631 31.1563C93.5657 30.7012 91.1254 28.4794 89.8818 28.399C88.0432 28.2853 86.5388 34.3251 85.2317 36.3228C81.3673 42.2121 75.1093 46.629 68.0958 47.914Z" fill="url(#paint0_linear)"/>
<path d="M104.006 83.6044C116.425 83.6044 126.494 73.5264 126.494 61.0946C126.494 48.6628 116.425 38.5848 104.006 38.5848C91.5859 38.5848 81.5177 48.6628 81.5177 61.0946C81.5177 73.5264 91.5859 83.6044 104.006 83.6044Z" fill="#EA5455"/>
<path d="M104.193 80.9542C115.978 80.9542 125.531 71.3916 125.531 59.5955C125.531 47.7994 115.978 38.2368 104.193 38.2368C92.4083 38.2368 82.8549 47.7994 82.8549 59.5955C82.8549 71.3916 92.4083 80.9542 104.193 80.9542Z" fill="url(#paint1_linear)"/>
<path d="M104.093 83.6044C116.575 83.6044 126.694 74.0373 126.694 62.2357C126.694 50.434 116.575 40.8669 104.093 40.8669C91.6101 40.8669 81.491 50.434 81.491 62.2357C81.491 74.0373 91.6101 83.6044 104.093 83.6044Z" fill="url(#paint2_linear)"/>
<path d="M90.6139 73.0706C94.5907 73.0706 97.8146 70.0234 97.8146 66.2644C97.8146 62.5055 94.5907 59.4583 90.6139 59.4583C86.637 59.4583 83.4132 62.5055 83.4132 66.2644C83.4132 70.0234 86.637 73.0706 90.6139 73.0706Z" fill="url(#paint3_linear)"/>
<path d="M119.116 69.6407C123.093 69.6407 126.317 66.5935 126.317 62.8346C126.317 59.0757 123.093 56.0284 119.116 56.0284C115.139 56.0284 111.915 59.0757 111.915 62.8346C111.915 66.5935 115.139 69.6407 119.116 69.6407Z" fill="url(#paint4_linear)"/>
<path opacity="0.61" d="M148.908 125.539C147.577 127.163 146.44 128.937 145.522 130.826C142.493 136.829 140.665 143.976 136.496 149.19C128.67 158.96 114.646 159.489 103.086 156.133C91.5266 152.777 80.6887 146.372 68.8246 144.799C53.8348 142.818 37.0064 148.299 23.3605 143.762C20.1732 142.72 17.2132 141.08 14.6388 138.93C14.0972 138.475 13.5791 138.01 13.081 137.521C9.7982 134.292 7.28765 130.24 5.07796 126.037C4.65675 125.228 4.23554 124.414 3.83439 123.601C3.83439 123.601 3.83439 123.581 3.81433 123.568C14.1775 119.974 25.6638 125.412 36.7791 126.148C42.5022 126.526 48.436 125.649 53.8549 127.533C56.4657 128.443 58.9228 129.982 61.6707 130.166C64.1044 130.34 66.4545 129.42 68.8447 128.942C75.7712 127.566 82.885 129.872 89.9487 129.946C100.783 130.033 111.043 124.843 121.854 124.14C128.369 123.718 140.564 122.658 148.908 125.539Z" fill="#EA5455"/>
<path d="M145.522 130.826C142.493 136.829 140.665 143.976 136.496 149.19C128.67 158.96 114.646 159.489 103.086 156.133C91.5265 152.777 80.6887 146.372 68.8246 144.799C53.8348 142.818 37.0064 148.299 23.3605 143.762C27.7866 142.038 32.2093 140.319 36.6287 138.606C38.1464 138.02 39.6808 137.424 41.3088 137.25C43.0405 137.056 44.7922 137.357 46.5138 137.628C54.0153 138.788 61.5952 139.364 69.1856 139.352C72.7158 139.352 76.2961 139.211 79.6825 140.195C81.7083 140.781 83.6238 141.768 85.6998 142.169C89.25 142.838 92.8637 141.768 96.307 140.694L120.279 133.275C126.965 131.204 136.111 127.567 143.145 129.711C143.983 129.977 144.782 130.352 145.522 130.826Z" fill="url(#paint5_linear)"/>
<path d="M50.0038 90.106C49.4232 91.6863 48.4548 93.095 47.1877 94.2025C45.9206 95.31 44.3956 96.0807 42.753 96.4436C42.0844 96.5842 41.3656 96.6712 40.804 97.0259C40.6523 97.118 40.514 97.2306 40.3929 97.3605C39.9583 97.8591 39.8613 98.5618 39.7744 99.2343C39.4735 101.869 39.1638 104.501 38.8451 107.131C38.4773 110.24 38.1096 113.349 37.9358 116.471C37.715 121.006 37.8558 125.553 38.357 130.066C38.4974 131.321 38.6177 132.696 37.9024 133.747C37.6904 134.055 37.4187 134.316 37.1034 134.516C36.4224 134.938 35.6702 135.232 34.8837 135.383C32.7094 135.884 30.482 136.116 28.2513 136.076C27.7298 136.076 27.2016 136.056 26.6801 136.012C22.7856 135.721 25.2426 129.112 25.5435 126.837C26.2355 121.778 25.8778 116.373 25.1758 111.334C25.1423 111.087 25.1122 110.836 25.0588 110.588C24.9912 110.324 24.8853 110.072 24.7445 109.838C24.3794 109.365 23.9251 108.969 23.4073 108.671C20.0845 106.385 18.0586 102.507 17.4536 98.5183C16.8485 94.5296 17.487 90.4372 18.6436 86.5824C19.0147 85.3577 19.6465 83.9724 20.8634 83.7215C20.8991 83.7099 20.9362 83.7032 20.9737 83.7014C22.4446 83.4839 23.5277 85.0867 23.872 86.5389C24.6609 89.8416 23.6882 93.3953 24.6075 96.6678C25.0186 98.1067 26.416 99.6794 27.7699 99.0102C28.6223 98.5986 28.8497 97.5613 28.9165 96.5641V96.5407C28.9165 96.3667 28.9366 96.2061 28.9366 96.0421C29.0183 90.2939 29.4358 84.5555 30.1868 78.8561C30.4476 76.8852 30.7618 74.8708 31.6143 73.0706C32.45 71.3506 34.0814 69.7445 35.9601 69.8214C36.0534 69.8114 36.1476 69.8114 36.2409 69.8214C37.8756 70.0289 39.1092 71.4945 39.5839 73.0739C40.0586 74.6533 39.9516 76.3331 39.8981 77.9794C39.8323 80.1482 39.8903 82.3189 40.0719 84.481L40.2023 85.8429C40.2658 86.4954 40.3427 87.1346 40.4296 87.7837C41.3389 88.3459 42.6159 87.7068 43.104 86.7531C43.5921 85.7994 43.5285 84.6517 43.4383 83.5909C43.338 82.3562 43.2544 81.1215 43.1541 79.8867C43.0397 79.0236 43.0771 78.1471 43.2644 77.2968C43.3536 76.9624 43.5087 76.6492 43.7205 76.3757C43.9324 76.1022 44.1967 75.8738 44.498 75.704C44.6492 75.6158 44.8142 75.5535 44.9861 75.52C46.4336 75.2288 47.5835 76.7012 48.2521 78.0229C50.1442 81.7639 51.3978 86.1608 50.0038 90.106Z" fill="#EA5455"/>
<path d="M80.2942 134.476C73.9092 135.052 67.4573 135.637 61.1057 134.757C55.5865 133.988 50.074 132.127 44.5481 132.83C43.1018 133.047 41.6679 133.339 40.2524 133.707C33.2657 135.328 26.1412 136.282 18.9746 136.558C16.9758 136.589 14.9924 136.914 13.0876 137.521C9.79818 134.292 7.28763 130.24 5.07794 126.037C11.7037 125.683 18.3361 125.703 24.8013 127.041C26.8572 127.476 28.9031 128.045 30.9925 128.256C35.6358 128.754 40.3761 127.587 44.986 128.289C47.3562 128.667 49.606 129.524 51.8056 130.478C53.4771 131.19 55.1486 131.983 56.9672 132.275C58.2243 132.418 59.4897 132.476 60.7547 132.449C63.0613 132.492 65.3446 132.75 67.6278 133.021C71.8377 133.496 76.0598 133.981 80.2942 134.476Z" fill="url(#paint6_linear)"/>
<path d="M28.639 102.467C28.4117 103.179 27.947 103.939 27.2116 104.026C26.7994 104.036 26.3931 103.927 26.0415 103.712C24.8897 103.102 23.8718 102.268 23.0483 101.257C22.2249 100.247 21.6126 99.0808 21.2478 97.829C20.1446 94.0143 21.4416 90.0926 21.2478 86.2277C21.2143 85.5217 20.9135 84.5814 20.8566 83.7348C20.8924 83.7233 20.9294 83.7166 20.9669 83.7148C22.4378 83.4973 23.521 85.1001 23.8653 86.5523C24.6542 89.855 23.6814 93.4086 24.6007 96.6812C25.0119 98.1201 26.4093 99.6928 27.7632 99.0235C28.6156 98.612 28.8429 97.5746 28.9098 96.5775C28.9532 97.0192 28.9833 97.4743 29.0067 97.9159C29.0836 99.4552 29.117 101.015 28.639 102.467Z" fill="url(#paint7_linear)"/>
<path d="M46.2697 81.968C46.2898 84.8089 45.7716 87.9611 43.5519 89.7245C42.783 90.3335 41.8637 90.7283 41.1283 91.3608C40.6736 91.7623 40.4029 92.726 39.9816 92.89C39.9048 95.9885 39.8178 98.8897 39.7744 99.2477C39.4735 101.882 39.1637 104.515 38.845 107.145C38.4773 110.253 38.1096 113.362 37.9358 116.484C37.715 121.02 37.8558 125.566 38.357 130.079C38.4974 131.334 38.6177 132.71 37.9023 133.76C37.6904 134.068 37.4187 134.33 37.1034 134.53C36.4709 133.878 36.0222 133.07 35.803 132.188C34.9906 129.511 35.2614 126.619 35.5021 123.822C35.8899 119.325 36.193 114.822 36.4114 110.314C36.7791 102.417 36.8827 94.5196 36.7223 86.6226C36.6398 82.6674 36.4927 78.72 36.281 74.7804C36.2141 73.7532 35.5222 70.8386 35.9467 69.798C36.04 69.788 36.1342 69.788 36.2275 69.798C37.8622 70.0054 39.0958 71.4711 39.5705 73.0505C40.0452 74.6299 39.9382 76.3096 39.8847 77.956C39.8189 80.1247 39.8769 82.2955 40.0585 84.4576L40.1889 85.8195C40.2524 86.472 40.3293 87.1111 40.4162 87.7603C41.3255 88.3224 42.6025 87.6833 43.0906 86.7297C43.5787 85.776 43.5151 84.6283 43.4249 83.5675C43.3246 82.3328 43.241 81.098 43.1407 79.8633C43.0263 79.0001 43.0637 78.1236 43.251 77.2734C43.3402 76.939 43.4953 76.6258 43.7071 76.3523C43.919 76.0788 44.1833 75.8504 44.4846 75.6806C44.518 75.714 44.5481 75.7575 44.5815 75.791C45.9755 77.4842 46.2597 79.8031 46.2697 81.968Z" fill="url(#paint8_linear)"/>
<path d="M31.4872 131.726C31.4872 132.683 31.4872 133.68 31.0493 134.54C30.7328 135.142 30.234 135.628 29.6245 135.929C29.0149 136.229 28.3258 136.329 27.6562 136.213C27.5054 136.195 27.3651 136.127 27.2584 136.019C27.1649 135.869 27.1281 135.691 27.1548 135.517C27.4066 129.289 27.6584 123.064 27.9103 116.842C28.0206 114.058 28.1376 111.251 28.8363 108.553C29.2006 107.148 29.7221 105.783 30.0029 104.357C30.3707 102.507 30.3372 100.603 30.2771 98.7157C30.1768 94.9345 30.0698 91.1466 30.2503 87.3655C30.4141 83.959 30.4676 79.5153 31.9753 76.4167C33.6066 77.6214 32.3731 83.6679 32.3096 85.5619C32.187 89.2962 32.0756 93.0317 31.9753 96.7682C31.7859 104.172 31.6499 111.58 31.5674 118.99C31.534 123.242 31.5073 127.487 31.4872 131.726Z" fill="url(#paint9_linear)"/>
</g>
<defs>
<linearGradient id="paint0_linear" x1="102.07" y1="12.5415" x2="104.237" y2="116.005" gradientUnits="userSpaceOnUse">
<stop stop-color="white" stop-opacity="0"/>
<stop offset="0.13" stop-color="white" stop-opacity="0.23"/>
<stop offset="0.23" stop-color="white" stop-opacity="0.41"/>
<stop offset="0.35" stop-color="white" stop-opacity="0.59"/>
<stop offset="0.48" stop-color="white" stop-opacity="0.74"/>
<stop offset="0.6" stop-color="white" stop-opacity="0.85"/>
<stop offset="0.72" stop-color="white" stop-opacity="0.93"/>
<stop offset="0.84" stop-color="white" stop-opacity="0.98"/>
<stop offset="0.95" stop-color="white"/>
</linearGradient>
<linearGradient id="paint1_linear" x1="11032.3" y1="5089.14" x2="18644.7" y2="13349.7" gradientUnits="userSpaceOnUse">
<stop stop-color="white" stop-opacity="0"/>
<stop offset="0.13" stop-color="white" stop-opacity="0.23"/>
<stop offset="0.23" stop-color="white" stop-opacity="0.41"/>
<stop offset="0.35" stop-color="white" stop-opacity="0.59"/>
<stop offset="0.48" stop-color="white" stop-opacity="0.74"/>
<stop offset="0.6" stop-color="white" stop-opacity="0.85"/>
<stop offset="0.72" stop-color="white" stop-opacity="0.93"/>
<stop offset="0.84" stop-color="white" stop-opacity="0.98"/>
<stop offset="0.95" stop-color="white"/>
</linearGradient>
<linearGradient id="paint2_linear" x1="11596.6" y1="5359.97" x2="19374.8" y2="14296.8" gradientUnits="userSpaceOnUse">
<stop stop-color="white" stop-opacity="0"/>
<stop offset="0.13" stop-color="white" stop-opacity="0.23"/>
<stop offset="0.23" stop-color="white" stop-opacity="0.41"/>
<stop offset="0.35" stop-color="white" stop-opacity="0.59"/>
<stop offset="0.48" stop-color="white" stop-opacity="0.74"/>
<stop offset="0.6" stop-color="white" stop-opacity="0.85"/>
<stop offset="0.72" stop-color="white" stop-opacity="0.93"/>
<stop offset="0.84" stop-color="white" stop-opacity="0.98"/>
<stop offset="0.95" stop-color="white"/>
</linearGradient>
<linearGradient id="paint3_linear" x1="3727.26" y1="2488.29" x2="4516.34" y2="3395.11" gradientUnits="userSpaceOnUse">
<stop stop-color="white" stop-opacity="0"/>
<stop offset="0.13" stop-color="white" stop-opacity="0.23"/>
<stop offset="0.23" stop-color="white" stop-opacity="0.41"/>
<stop offset="0.35" stop-color="white" stop-opacity="0.59"/>
<stop offset="0.48" stop-color="white" stop-opacity="0.74"/>
<stop offset="0.6" stop-color="white" stop-opacity="0.85"/>
<stop offset="0.72" stop-color="white" stop-opacity="0.93"/>
<stop offset="0.84" stop-color="white" stop-opacity="0.98"/>
<stop offset="0.95" stop-color="white"/>
</linearGradient>
<linearGradient id="paint4_linear" x1="4983.63" y1="2345.34" x2="5772.71" y2="3252.15" gradientUnits="userSpaceOnUse">
<stop stop-color="white" stop-opacity="0"/>
<stop offset="0.13" stop-color="white" stop-opacity="0.23"/>
<stop offset="0.23" stop-color="white" stop-opacity="0.41"/>
<stop offset="0.35" stop-color="white" stop-opacity="0.59"/>
<stop offset="0.48" stop-color="white" stop-opacity="0.74"/>
<stop offset="0.6" stop-color="white" stop-opacity="0.85"/>
<stop offset="0.72" stop-color="white" stop-opacity="0.93"/>
<stop offset="0.84" stop-color="white" stop-opacity="0.98"/>
<stop offset="0.95" stop-color="white"/>
</linearGradient>
<linearGradient id="paint5_linear" x1="83.2594" y1="127.339" x2="94.6673" y2="223.241" gradientUnits="userSpaceOnUse">
<stop stop-color="#010101" stop-opacity="0"/>
<stop offset="0.95" stop-color="#010101"/>
</linearGradient>
<linearGradient id="paint6_linear" x1="10202.1" y1="4592.8" x2="10225.5" y2="6076.66" gradientUnits="userSpaceOnUse">
<stop stop-color="#010101" stop-opacity="0"/>
<stop offset="0.95" stop-color="#010101"/>
</linearGradient>
<linearGradient id="paint7_linear" x1="717.359" y1="5402.32" x2="48.0695" y2="9726.54" gradientUnits="userSpaceOnUse">
<stop stop-color="#010101" stop-opacity="0"/>
<stop offset="0.95" stop-color="#010101"/>
</linearGradient>
<linearGradient id="paint8_linear" x1="1448.08" y1="14772.1" x2="6862.43" y2="48146.2" gradientUnits="userSpaceOnUse">
<stop stop-color="#010101" stop-opacity="0"/>
<stop offset="0.95" stop-color="#010101"/>
</linearGradient>
<linearGradient id="paint9_linear" x1="417.231" y1="18739.7" x2="3101.86" y2="18811" gradientUnits="userSpaceOnUse">
<stop stop-color="#010101" stop-opacity="0"/>
<stop offset="0.95" stop-color="#010101"/>
</linearGradient>
<clipPath id="clip0">
<rect width="182" height="158" fill="white"/>
</clipPath>
</defs>
</svg>
