<svg width="154" height="134" viewBox="0 0 154 134" fill="none" xmlns="http://www.w3.org/2000/svg">
<g clip-path="url(#clip0)">
<path opacity="0.24" d="M153.907 73.6598C152.905 86.7341 143.556 98.6818 144.452 111.572C144.49 112.113 144.541 112.655 144.614 113.178C144.783 114.456 145.06 115.718 145.331 116.969C145.698 118.672 146.051 120.376 146.108 122.114C146.173 124.18 145.7 126.395 144.563 128.072C144.036 128.853 143.334 129.502 142.513 129.967C142.323 130.072 142.127 130.167 141.927 130.252C140.807 130.68 139.631 130.945 138.436 131.037C121.115 132.857 103.89 126.672 86.4671 126.877C71.8074 127.051 57.4192 131.752 42.9142 133.409C40.7424 133.664 38.5706 133.848 36.3988 133.929C34.3899 134.023 32.3782 134.023 30.3639 133.929C29.6038 133.888 28.8572 133.837 28.1106 133.777C27.1035 133.693 26.1017 133.572 25.0946 133.417C19.4587 132.605 13.9369 130.761 9.51184 127.235C0.702459 120.205 -2.08017 107.179 1.54675 96.5072C3.90316 89.5666 8.64041 83.2678 9.0069 75.9616C9.41683 67.7943 4.29408 60.4448 2.6055 52.4399C1.87524 49.0468 1.79108 45.5481 1.88609 42.0872C2.05712 36.6063 2.972 30.6378 6.97898 26.8954C8.06766 25.9182 9.27635 25.0828 10.576 24.4094C11.2927 24.0222 12.0094 23.6647 12.7478 23.3073C15.5956 21.9045 18.476 20.5261 21.3563 19.1965C31.6724 14.36 42.1324 9.86204 52.7362 5.70255C59.0697 3.21931 65.5444 0.817318 72.3259 0.175522C84.7568 -0.991626 96.9324 3.81237 108.207 9.19858C114.223 12.0826 120.165 15.1562 126.344 17.7261C127.932 18.3787 129.531 19.0043 131.152 19.5648C132.555 20.0685 133.981 20.537 135.414 20.9432C137.247 21.4848 139.72 21.6418 141.658 22.3459L142.057 22.4976C142.584 22.7081 143.071 23.0056 143.499 23.3777L143.58 23.4508C147.4 27.047 148.855 36.8798 149.965 41.8408C151.38 48.1342 152.248 54.5441 153.101 60.9349C153.66 65.1567 154.227 69.4164 153.907 73.6598Z" fill="#EA5455"/>
<path d="M111.137 91.3301L113.135 82.2664L112.703 80.2516L101.369 81.4323C101.369 81.4323 100.012 89.4832 96.1594 86.7942C92.3071 84.1051 95.6979 81.0397 95.6979 81.0397L95.2662 79.0249L84.0461 79.9619L82.0725 90.8887C82.0725 90.8887 77.2674 87.7609 74.987 90.2875C73.3744 92.0748 74.6259 96.283 77.509 96.83C78.6777 97.0726 79.8807 97.102 81.0599 96.9167L78.2854 107.657L78.7171 109.671L106.85 113.341L111.137 91.3301Z" fill="#EA5455"/>
<path d="M111.137 91.3301L113.135 82.2664L112.703 80.2516L101.369 81.4323C101.369 81.4323 100.012 89.4832 96.1594 86.7942C92.3071 84.1051 95.6979 81.0397 95.6979 81.0397L95.2662 79.0249L84.0461 79.9619L82.0725 90.8887C82.0725 90.8887 77.2674 87.7609 74.987 90.2875C73.3744 92.0748 74.6259 96.283 77.509 96.83C78.6777 97.0726 79.8807 97.102 81.0599 96.9167L78.2854 107.657L78.7171 109.671L106.85 113.341L111.137 91.3301Z" fill="url(#paint0_linear)"/>
<path d="M45.35 108.082L54.2544 110.763L57.0425 109.227L55.9864 99.121C55.9864 99.121 48.0458 97.1522 51.0266 93.5316C54.0074 89.911 56.8144 93.5127 56.8144 93.5127L59.6133 91.9772L58.7989 82.0064L48.0105 79.2063C48.0105 79.2063 52.0826 73.3218 49.7425 70.8603C48.0783 69.119 43.1891 71.4019 42.4126 74.2155C42.0845 75.3584 41.965 76.5508 42.0597 77.7359L32.2866 72.894L29.4985 74.4402L23.6754 102.135L45.35 108.082Z" fill="#EA5455"/>
<path d="M45.35 108.082L54.2544 110.763L57.0425 109.227L55.9864 99.121C55.9864 99.121 48.0458 97.1522 51.0266 93.5316C54.0074 89.911 56.8144 93.5127 56.8144 93.5127L59.6133 91.9772L58.7989 82.0064L48.0105 79.2063C48.0105 79.2063 52.0826 73.3218 49.7425 70.8603C48.0783 69.119 43.1891 71.4019 42.4126 74.2155C42.0845 75.3584 41.965 76.5508 42.0597 77.7359L32.2866 72.894L29.4985 74.4402L23.6754 102.135L45.35 108.082Z" fill="url(#paint1_linear)"/>
<path d="M35.6828 50.9375L31.2767 55.7551L30.6985 58.7772L41.4706 63.5758C41.4706 63.5758 45.5102 56.4754 48.2032 60.3126C49.5606 62.2326 48.2331 63.4647 47.2422 62.8554L46.6639 65.8776L57.2515 70.8657L62.4448 61.8481C62.4448 61.8481 66.8699 63.9576 68.9847 62.8067C70.0977 62.2001 70.7411 61.0086 70.9936 60.0716C70.9936 60.0716 71.5175 57.3988 71.39 57.0495C71.1565 56.4185 69.9403 57.7129 69.1774 57.2418C66.6771 55.7063 65.7161 56.4754 65.7161 56.4754L72.446 44.7714L73.0242 41.7493L48.4041 34.7924L35.6828 50.9375Z" fill="url(#paint2_linear)"/>
<path d="M36.2664 47.9153L31.2767 55.755L42.0461 60.5536C42.0461 60.5536 45.1247 54.8912 48.7787 57.304C52.1125 59.4921 47.2422 62.8689 47.2422 62.8689L57.8297 67.8571L63.0231 58.8394C63.0231 58.8394 67.4454 60.949 69.5629 59.7981C71.6804 58.6472 72.256 55.7686 69.7529 54.2331C67.2499 52.6977 66.2916 53.4667 66.2916 53.4667L73.0242 41.7628L48.9715 31.7648L36.2664 47.9153Z" fill="#EA5455"/>
<path d="M36.2664 47.9153L31.2767 55.755L42.0461 60.5536C42.0461 60.5536 45.1247 54.8912 48.7787 57.304C52.1125 59.4921 47.2422 62.8689 47.2422 62.8689L57.8297 67.8571L63.0231 58.8394C63.0231 58.8394 67.4454 60.949 69.5629 59.7981C71.6804 58.6472 72.256 55.7686 69.7529 54.2331C67.2499 52.6977 66.2916 53.4667 66.2916 53.4667L73.0242 41.7628L48.9715 31.7648L36.2664 47.9153Z" fill="url(#paint3_linear)"/>
<path d="M90.7299 69.5198L100.897 67.2153C100.897 67.2153 102.341 71.892 104.624 72.6638C105.824 73.0673 107.138 72.7315 107.998 72.282C107.998 72.282 110.325 70.8521 110.496 70.5245C110.803 69.9233 109.027 69.9097 108.854 69.0324C108.289 66.1565 107.073 65.9723 107.073 65.9723L120.261 62.9746L122.881 61.3498L111.316 38.5782L90.795 40.203L84.2606 40.2328L81.6436 41.8576L85.4035 53.0118C85.4035 53.0118 93.3741 51.1623 92.3696 55.7361C91.8701 58.0243 90.0675 57.9025 89.8449 56.7543L87.2251 58.3791" fill="url(#paint4_linear)"/>
<path d="M93.4148 38.5782L84.2606 40.2355L88.0287 51.387C88.0287 51.387 94.2862 49.8055 94.9975 54.1113C95.6436 58.0406 89.853 56.7543 89.853 56.7543L93.3469 67.895L103.514 65.5905C103.514 65.5905 104.958 70.2645 107.241 71.0363C109.524 71.808 112.035 70.2807 111.465 67.3994C110.895 64.5181 109.682 64.3421 109.682 64.3421L122.873 61.3443L113.936 36.9534L93.4148 38.5782Z" fill="#EA5455"/>
<path d="M111.465 67.3994C112.03 70.2726 109.519 71.8053 107.233 71.0281C104.947 70.2509 103.503 65.5905 103.503 65.5905L93.336 67.8896L89.8422 56.7488C89.8422 56.7488 95.6327 58.0351 94.9866 54.1112C94.2808 49.7974 88.0178 51.3816 88.0178 51.3816L84.2579 40.23L93.4093 38.5728L104.135 37.7306L113.933 36.9534L118.431 49.2206L118.83 50.3038L120.459 54.7503L122.867 61.3524L109.679 64.3475C109.679 64.3475 110.922 64.5316 111.465 67.3994Z" fill="url(#paint5_linear)"/>
<path d="M105.718 52.3402L104.23 54.5066C105.202 54.336 106.226 54.6122 107.181 54.3685C107.642 54.2242 108.087 54.0337 108.509 53.7998C109.581 53.3165 110.688 52.9137 111.821 52.5948L116.523 51.1514C117.307 50.9104 118.317 50.7317 118.819 51.3789L117.614 46.1687C117.583 45.9336 117.489 45.7111 117.343 45.5242C117.133 45.3552 116.874 45.26 116.604 45.2534C114.549 44.9988 112.163 45.4673 110.632 44.07C109.882 43.3822 109.44 42.3044 108.482 41.9605C107.667 41.6707 106.758 42.0336 106.098 42.5833C105.438 43.133 104.947 43.8588 104.342 44.4654C102.097 46.7076 98.3909 47.2411 96.5829 49.8489C99.6886 50.5556 102.504 47.5308 105.688 47.4739C104.773 47.4902 103.025 49.1962 102.316 49.7487C101.543 50.358 100.145 51.1541 100.088 52.2454C99.9302 55.143 104.564 52.8683 105.718 52.3402Z" fill="url(#paint6_linear)"/>
<path d="M48.1381 106.546L57.0424 109.227L58.7772 97.5828C58.7772 97.5828 50.8365 95.6114 53.8146 91.9908C56.7927 88.3702 59.6025 91.9718 59.6025 91.9718L61.5734 80.4655L50.7985 77.6655C50.7985 77.6655 52.9839 73.8228 50.6329 71.3612C48.9715 69.62 45.9771 69.8475 45.2034 72.6746C44.8752 73.8175 44.7566 75.0101 44.8532 76.195L32.2839 72.8885L26.4634 100.6L48.1381 106.546Z" fill="#EA5455"/>
<path d="M48.1381 106.546L57.0424 109.227L58.7772 97.5828C58.7772 97.5828 50.8365 95.6114 53.8146 91.9908C56.7927 88.3702 59.6025 91.9718 59.6025 91.9718L61.5734 80.4655L50.7985 77.6655C50.7985 77.6655 52.9839 73.8228 50.6329 71.3612C48.9715 69.62 45.9771 69.8475 45.2034 72.6746C44.8752 73.8175 44.7566 75.0101 44.8532 76.195L32.2839 72.8885L26.4634 100.6L48.1381 106.546Z" fill="url(#paint7_linear)"/>
<path d="M30.4949 101.017C32.6993 97.0114 34.4747 92.6569 37.6863 89.3965C38.145 88.9307 38.8916 88.4731 39.3938 88.8955C39.8119 89.2476 39.6653 89.911 39.497 90.4255L37.8953 95.1212L41.153 89.7946C41.696 88.9253 42.2905 87.9965 43.2515 87.6498C43.3944 87.5888 43.5481 87.5574 43.7035 87.5574C43.8589 87.5574 44.0127 87.5888 44.1555 87.6498C44.6333 87.8936 44.6985 88.5299 44.6985 89.0634C44.6905 90.5115 44.5137 91.9537 44.1718 93.361C45.0645 91.863 46.1876 90.5142 47.5001 89.364C47.9833 89.7188 48.0593 90.4012 48.0431 90.9888C47.9806 93.0902 47.2721 95.1131 46.5689 97.0954C46.1889 98.1786 45.7979 99.2618 45.0948 100.166C43.827 101.791 41.7475 102.522 39.7332 102.945C37.7188 103.367 35.6285 103.562 33.7607 104.429C33.0196 104.775 32.311 105.227 31.5048 105.368C30.6252 105.52 28.6298 105.051 28.4018 103.963C28.3013 103.378 30.0551 101.813 30.4949 101.017Z" fill="url(#paint8_linear)"/>
<path d="M110.705 89.3153L112.703 80.2516L100.935 79.4175C100.935 79.4175 99.5773 87.4684 95.7277 84.7794C91.8782 82.0903 95.2662 79.0249 95.2662 79.0249L83.6145 77.9417L81.6382 88.8684C81.6382 88.8684 77.6312 86.9891 75.3508 89.5157C73.7382 91.3029 74.1916 94.2628 77.0774 94.8098C78.2446 95.0499 79.4458 95.0774 80.6228 94.891L78.28 107.646L106.418 111.32L110.705 89.3153Z" fill="#EA5455"/>
<path d="M101.258 85.6595C100.609 85.3751 99.6289 85.0935 99.3574 85.7461C99.2189 86.0711 99.3791 86.4367 99.5338 86.7508L101.271 90.2333L97.077 88.6654C96.8076 88.5271 96.4975 88.4897 96.2028 88.5598C95.5296 88.8116 95.7522 89.8081 96.0943 90.4364L98.6543 95.1402C97.5195 95.3054 96.4336 93.8728 95.3966 94.3874C94.5821 94.7936 94.7179 95.9824 95.0599 96.8246C96.5666 100.437 99.6533 103.145 101.85 106.395C102.61 107.516 103.283 108.918 102.775 110.17C102.553 110.711 102.132 111.391 102.536 111.827C102.728 111.988 102.967 112.083 103.218 112.098C105.37 112.464 107.563 112.531 109.733 112.295C109.97 104.91 110.332 97.5314 110.819 90.1602C110.863 89.5048 110.898 88.8062 110.569 88.2402C110.262 87.7937 109.85 87.4285 109.369 87.176C108.33 86.5206 107.306 85.822 106.239 85.2045C105.072 84.5302 104.773 84.839 104.828 86.1388C103.687 86.4177 102.311 86.1226 101.258 85.6595Z" fill="url(#paint9_linear)"/>
<path d="M59.3039 51.1514C59.3229 51.6714 58.7609 52.0505 58.2478 52.0315C57.7349 51.9639 57.2498 51.759 56.8443 51.4385C55.3267 50.4473 53.8092 49.4535 52.3052 48.4597C51.1161 47.6825 49.8619 46.8863 48.472 46.6914C51.279 48.9932 54.0264 51.3951 56.6787 53.8676C57.0072 54.1654 57.3574 54.6041 57.1402 54.9914C57.023 55.1685 56.844 55.2959 56.638 55.3488C55.3485 55.7496 54.0264 54.921 52.8889 54.2142C50.6146 52.7952 48.1785 51.6524 45.6323 50.8102C47.9463 52.2936 50.1304 53.9695 52.1613 55.82C52.4328 56.0746 52.7559 56.4537 52.6011 56.8003C52.5303 56.9477 52.4117 57.067 52.2645 57.1388C51.3089 57.6398 50.1823 57.0061 49.2783 56.4347C45.537 54.0302 41.4918 52.1324 37.2492 50.7913C37.013 50.7181 36.6546 50.5557 36.3262 50.4528C36.1206 50.3712 35.8943 50.3569 35.68 50.4121L32.6259 54.0219L31.521 51.4953C29.523 46.4666 28.3936 40.9341 25.0952 36.7774C24.7964 36.4002 24.4783 36.0387 24.1423 35.6942C23.1671 34.7212 22.1258 33.8164 21.0258 32.9862C17.931 30.5219 13.8833 27.0963 10.5848 24.418C11.3015 24.0308 12.0182 23.6733 12.7566 23.3159C15.5963 21.905 18.4766 20.5266 21.357 19.197C24.1233 22.2219 28.1303 26.4626 30.8586 28.8646C32.3545 30.1753 33.9535 31.4318 35.8185 32.1358C36.432 32.3714 37.0673 32.5448 37.6944 32.7289C41.4026 33.8574 44.9063 35.5697 48.0729 37.801C51.4772 40.203 55.0308 42.3179 57.9628 45.2832C58.3384 45.5919 58.6204 45.9988 58.7772 46.4585C58.9021 46.9269 58.6767 47.52 58.1935 47.6229C57.846 47.696 57.4958 47.4794 57.1999 47.2871L51.0619 43.2251C53.2635 46.0983 57.0343 47.52 59.0351 50.5367C59.1776 50.7143 59.2703 50.9264 59.3039 51.1514Z" fill="#775339"/>
<path d="M143.752 23.1642C143.662 23.2346 143.578 23.3078 143.48 23.3782C140.1 26.0681 136.715 28.7563 133.327 31.4426C132.227 32.278 131.186 33.1873 130.211 34.1641C124.933 39.7047 124.575 48.3703 120.454 54.7612L118.825 50.3147C118.87 50.1589 118.878 49.9951 118.85 49.8355C118.822 49.6759 118.758 49.5249 118.662 49.3939C118.595 49.3216 118.515 49.2627 118.426 49.2206C118.057 49.0257 117.535 49.1286 117.104 49.2721C112.863 50.614 108.819 52.5078 105.075 54.9047C104.171 55.4869 103.033 56.1206 102.088 55.6088C101.936 55.5466 101.812 55.4297 101.741 55.2811C101.586 54.9345 101.893 54.5554 102.181 54.3008C104.212 52.4503 106.396 50.7744 108.71 49.291C106.166 50.1335 103.73 51.2724 101.453 52.6842C100.316 53.4018 98.9936 54.2196 97.7122 53.8188C97.6083 53.7979 97.5096 53.7564 97.4219 53.6969C97.3343 53.6374 97.2595 53.561 97.2018 53.4722C96.9955 53.0849 97.3349 52.6435 97.6606 52.3484C100.316 49.866 103.056 47.474 105.881 45.1722C104.467 45.3671 103.226 46.1633 102.037 46.9405L97.5086 49.9193C97.0688 50.2063 96.6155 50.4934 96.0942 50.5123C95.573 50.5313 95.0083 50.1468 95.0382 49.635C95.0673 49.3992 95.1613 49.1762 95.3097 48.9904C97.3077 45.9737 101.079 44.5439 103.283 41.6788L97.1448 45.7408C96.8462 45.9358 96.4987 46.1498 96.1512 46.0685C95.6789 45.9656 95.4535 45.3834 95.5676 44.9149C95.6816 44.4464 96.0372 44.0754 96.382 43.7288C98.7058 41.4026 101.421 39.5801 104.135 37.7306C104.855 37.2513 105.561 36.7584 106.266 36.2574C109.434 34.0274 112.939 32.3161 116.648 31.188C117.275 31.0039 117.91 30.8306 118.524 30.595C120.389 29.8909 121.988 28.6317 123.483 27.3237C126.22 24.9217 128.698 22.2544 131.139 19.5653C132.543 20.0663 133.968 20.5375 135.401 20.9464C137.236 21.488 139.704 21.6423 141.645 22.3464L142.044 22.5008L143.752 23.1642Z" fill="#D9A677"/>
<path d="M52.2129 94.891C51.3985 98.972 49.5796 102.693 48.062 106.565C46.6456 110.163 44.6594 113.512 42.1792 116.482C41.7584 116.983 41.3186 117.473 40.9385 118.004C39.7712 119.629 39.1169 121.54 38.593 123.452C37.9469 125.825 37.108 130.065 36.4212 133.93C34.4122 134.022 32.4006 134.022 30.3863 133.93C29.6261 133.889 28.8796 133.837 28.1303 133.778C27.1258 133.693 26.1214 133.573 25.1169 133.418C26.2463 130.515 27.3919 127.593 28.1031 125.405C28.5634 124.107 28.9326 122.778 29.2081 121.429C30.3374 115.201 27.4679 109.046 26.4064 102.801C26.4064 102.801 28.6814 103.706 30.1609 103.343C30.7039 103.21 31.4939 102.043 31.8414 101.612C34.6533 98.1717 36.994 94.3734 38.802 90.3172C39.2309 89.3369 39.8363 88.1914 40.9005 88.0885C41.0639 88.0657 41.2301 88.0982 41.3729 88.1806C41.7014 88.3864 41.6443 88.8657 41.5466 89.2449C40.8707 91.9027 39.9689 94.4983 38.8509 97.0033C40.5173 94.9101 41.928 92.6266 43.0533 90.2008C43.618 88.9741 44.2641 87.5632 45.5536 87.1949C45.6544 87.157 45.7617 87.1393 45.8693 87.1431C45.977 87.1468 46.0828 87.1718 46.1807 87.2166C46.5689 87.4197 46.5173 87.9829 46.4142 88.4C45.5527 91.9276 44.5799 95.4272 43.4958 98.8989C44.5817 97.97 45.1654 96.6187 45.7273 95.3216C46.4513 93.6643 47.1689 92.0079 47.8801 90.3524C48.0865 89.8731 48.3118 89.383 48.7299 89.0851C49.1479 88.7872 49.8375 88.8007 50.0872 89.2394C50.1953 89.451 50.244 89.6877 50.2284 89.9246C50.2094 93.5424 47.853 96.792 47.5842 100.402C48.548 98.1433 49.5117 95.893 50.4754 93.6318C50.6085 93.3041 50.7822 92.9359 51.1216 92.8194C51.5722 92.6461 52.0853 93.0144 52.2482 93.4639C52.3677 93.9339 52.3555 94.4275 52.2129 94.891Z" fill="#F1B475"/>
<path d="M146.108 122.134C146.173 124.2 145.701 126.415 144.563 128.091C144.036 128.873 143.335 129.522 142.514 129.987C142.323 130.091 142.128 130.186 141.927 130.271C138.184 127.292 134.207 124.132 131.82 122.323C130.547 121.312 129.206 120.39 127.805 119.564C119.39 114.863 108.531 117.619 99.6723 113.806C99.3058 113.655 98.8931 113.419 98.8334 113.029C98.7737 112.639 99.037 112.325 99.3356 112.09C100.965 110.763 103.343 111.15 105.452 111.277C105.995 111.318 106.663 111.277 106.98 110.828C107.36 110.286 107.021 109.571 106.674 109.019C103.905 104.563 100.556 100.493 96.7132 96.9166C95.7793 96.0474 94.7369 94.9452 95.0328 93.705C95.0622 93.5146 95.1584 93.3409 95.3042 93.2148C95.6653 92.944 96.1757 93.185 96.5557 93.4314C99.2689 95.2096 101.827 97.2124 104.203 99.4188C102.497 96.7608 100.481 94.3145 98.1954 92.1316C97.039 91.0294 95.7169 89.7702 95.7956 88.1752C95.7933 88.0488 95.8161 87.9232 95.8627 87.8056C95.9093 87.688 95.9788 87.5808 96.0671 87.4901C96.4444 87.1326 97.0498 87.4116 97.4896 87.6851C101.095 89.9941 104.633 92.4205 108.104 94.9642C107.469 93.4179 106.204 92.2318 104.95 91.0999C103.372 89.67 101.806 88.2267 100.223 86.786C99.7727 86.3744 99.3031 85.9357 99.1375 85.3562C98.9719 84.7767 99.2298 84.0157 99.8243 83.8803C100.102 83.8515 100.382 83.8944 100.639 84.0049C104.673 85.4076 107.412 89.2909 111.335 90.9753C109.183 89.0327 107.035 87.0902 104.89 85.1477C104.572 84.8769 104.233 84.5357 104.214 84.1078C104.192 83.5337 104.798 83.1058 105.371 83.095C105.943 83.0842 106.47 83.3902 106.961 83.6772C111.202 86.1523 114.666 89.6077 118.407 92.7842C121.888 95.7539 124.87 99.261 127.238 103.172C127.637 103.825 128.017 104.502 128.46 105.135C129.817 107.055 131.717 108.518 133.656 109.845C136.544 111.813 141.322 114.705 145.329 116.986C145.698 118.692 146.051 120.395 146.108 122.134Z" fill="url(#paint10_linear)"/>
<path d="M36.5135 50.2821L36.318 50.4663L32.6178 54.0354L31.5129 51.5089C29.5148 46.4801 28.3855 40.9477 25.0871 36.7909C25.2201 36.8613 25.63 37.0969 26.9874 37.8524C28.9665 38.9573 32.4685 46.6859 33.5245 48.4136C33.8535 48.9259 34.2921 49.3592 34.8089 49.6823C35.3257 50.0054 35.9079 50.2102 36.5135 50.2821Z" fill="url(#paint11_linear)"/>
</g>
<defs>
<linearGradient id="paint0_linear" x1="89.9942" y1="72.0762" x2="104.928" y2="134.453" gradientUnits="userSpaceOnUse">
<stop stop-color="#010101" stop-opacity="0"/>
<stop offset="0.95" stop-color="#010101"/>
</linearGradient>
<linearGradient id="paint1_linear" x1="9158.02" y1="9783.11" x2="5446.21" y2="19786.7" gradientUnits="userSpaceOnUse">
<stop stop-color="#010101" stop-opacity="0"/>
<stop offset="0.95" stop-color="#010101"/>
</linearGradient>
<linearGradient id="paint2_linear" x1="11241.1" y1="5172.35" x2="10433.5" y2="9576.46" gradientUnits="userSpaceOnUse">
<stop stop-color="#010101" stop-opacity="0"/>
<stop offset="0.95" stop-color="#010101"/>
</linearGradient>
<linearGradient id="paint3_linear" x1="44.6985" y1="36.9642" x2="71.5302" y2="79.6214" gradientUnits="userSpaceOnUse">
<stop stop-color="white" stop-opacity="0"/>
<stop offset="0.95" stop-color="white"/>
</linearGradient>
<linearGradient id="paint4_linear" x1="18064.7" y1="883.079" x2="14471.7" y2="3179.12" gradientUnits="userSpaceOnUse">
<stop stop-color="#010101" stop-opacity="0"/>
<stop offset="0.95" stop-color="#010101"/>
</linearGradient>
<linearGradient id="paint5_linear" x1="14148.8" y1="10108.2" x2="27440.5" y2="-9062.5" gradientUnits="userSpaceOnUse">
<stop stop-color="#010101" stop-opacity="0"/>
<stop offset="0.95" stop-color="#010101"/>
</linearGradient>
<linearGradient id="paint6_linear" x1="10259.4" y1="2921.66" x2="10209.6" y2="-279.383" gradientUnits="userSpaceOnUse">
<stop stop-color="#010101" stop-opacity="0"/>
<stop offset="0.95" stop-color="#010101"/>
</linearGradient>
<linearGradient id="paint7_linear" x1="8032.23" y1="11943.3" x2="3583.91" y2="36536.8" gradientUnits="userSpaceOnUse">
<stop stop-color="#010101" stop-opacity="0"/>
<stop offset="0.95" stop-color="#010101"/>
</linearGradient>
<linearGradient id="paint8_linear" x1="3951.39" y1="5830.38" x2="3997.23" y2="9616.06" gradientUnits="userSpaceOnUse">
<stop stop-color="#010101" stop-opacity="0"/>
<stop offset="0.95" stop-color="#010101"/>
</linearGradient>
<linearGradient id="paint9_linear" x1="6411.64" y1="9450.78" x2="10653.3" y2="11027.6" gradientUnits="userSpaceOnUse">
<stop stop-color="#010101" stop-opacity="0"/>
<stop offset="0.95" stop-color="#010101"/>
</linearGradient>
<linearGradient id="paint10_linear" x1="124.909" y1="87.5984" x2="111.653" y2="149.352" gradientUnits="userSpaceOnUse">
<stop stop-color="#E5C6D6"/>
<stop offset="0.42" stop-color="#EAD4D0"/>
<stop offset="1" stop-color="#F0E9CB"/>
</linearGradient>
<linearGradient id="paint11_linear" x1="2129.95" y1="2972.67" x2="1197.11" y2="3158.3" gradientUnits="userSpaceOnUse">
<stop stop-color="#010101" stop-opacity="0"/>
<stop offset="0.95" stop-color="#010101"/>
</linearGradient>
<clipPath id="clip0">
<rect width="154" height="134" fill="white"/>
</clipPath>
</defs>
</svg>
