<svg width="186" height="142" viewBox="0 0 186 142" fill="none" xmlns="http://www.w3.org/2000/svg">
<g clip-path="url(#clip0)">
<path opacity="0.24" d="M185.993 86.0552C185.927 94.6769 184.792 103.465 181.253 111.163C179.004 116.031 175.827 120.414 171.899 124.069C162.682 132.78 149.889 137.497 137.518 138.976C120.028 141.066 102.335 138.098 84.7455 139.019C73.7685 139.597 62.868 141.678 51.8777 141.967C40.8874 142.256 29.468 140.568 20.1376 134.236C16.5929 131.801 13.4504 128.828 10.8238 125.425C7.41625 121.033 4.75716 116.11 2.95361 110.854C-4.05835 90.6386 1.73284 65.9532 16.7979 51.9005C22.7421 46.3498 29.8239 42.4577 36.8592 38.6952C51.5783 30.8546 76.2932 -23.791 134.202 12.1054C145.511 19.1351 151.369 33.5302 161.368 42.6405C170.273 50.7504 180.372 58.6842 184.137 70.653C185.694 75.5754 186.03 80.8602 185.993 86.0552Z" fill="#EA5455"/>
<path opacity="0.24" d="M171.9 124.068C162.682 132.78 149.889 137.496 137.518 138.975C120.028 141.066 102.335 138.098 84.7457 139.019C73.7687 139.597 62.8682 141.678 51.8779 141.967C40.8876 142.256 29.4682 140.567 20.1378 134.236C16.593 131.801 13.4506 128.828 10.824 125.424C11.7197 125.196 12.6283 125.022 13.5449 124.903C31.9929 122.41 50.6638 122.111 69.2781 121.822L120.095 121.021C125.726 120.931 131.385 120.841 136.996 121.386C144.174 122.077 151.223 123.789 158.405 124.434C162.958 124.849 167.412 124.185 171.9 124.068Z" fill="#EA5455"/>
<path d="M139.89 125.145C105.536 123.248 71.1039 123.217 36.7463 125.052C30.9418 125.361 25.0342 125.747 19.6122 127.844C22.2733 130.274 26.2317 130.467 29.8374 130.526C56.2598 130.952 82.6844 131.069 109.111 130.879C110.661 130.879 112.803 130.191 112.497 128.669C112.404 128.21 112.068 127.798 112.095 127.339C112.145 126.491 113.229 126.186 114.091 126.146C116.384 126.027 118.683 126.15 120.95 126.511C121.771 126.648 122.65 126.844 123.192 127.475C123.617 127.967 123.761 128.635 124.07 129.204C125.088 131.062 127.629 131.467 129.725 131.058C131.82 130.649 133.77 129.662 135.888 129.556C137.755 129.46 139.577 130.061 141.4 130.483C147.358 131.859 153.568 131.351 159.659 130.836C165.979 130.3 166.112 125.936 159.812 125.587C153.199 125.232 146.516 125.514 139.89 125.145Z" fill="url(#paint0_linear)"/>
<path d="M163.421 79.8927L160.57 64.3376H164.485C164.485 64.3376 165.383 76.7817 165.816 80.1552L163.421 79.8927Z" fill="#F5C7C8"/>
<path d="M165.616 79.0385C165.616 79.0385 166.165 81.4648 165.842 82.8176C165.52 84.1703 164.179 85.7458 163.421 85.8388C162.662 85.9319 162.197 85.5596 162.253 85.0445C162.31 84.5293 164.249 82.6979 163.95 82.1162C163.65 81.5346 162.885 83.3028 162.619 82.8741C162.353 82.4453 162.466 81.7806 163.135 80.9396C163.803 80.0987 163.135 78.9254 163.135 78.9254C163.135 78.9254 165.144 78.0347 165.616 79.0385Z" fill="#F5C7C8"/>
<path d="M157.975 32.0907C158.79 31.4891 160.447 31.6952 161.269 32.0242C161.861 32.2659 162.391 32.6403 162.816 33.1185C163.241 33.5968 163.55 34.1663 163.72 34.7829C163.868 35.3611 163.911 35.9612 163.846 36.5545C163.727 37.8607 163.165 39.1802 162.103 39.958C159.881 41.58 158.511 40.0743 157.852 38.0502C157.433 36.9053 157.298 35.6756 157.46 34.4672C157.58 33.5531 157.16 32.8319 157.869 32.1771L157.975 32.0907Z" fill="#606161"/>
<path d="M157.975 32.0907C158.79 31.4891 160.447 31.6952 161.269 32.0242C161.861 32.2659 162.391 32.6403 162.816 33.1185C163.241 33.5968 163.55 34.1663 163.72 34.7829C163.868 35.3611 163.911 35.9612 163.846 36.5545C163.727 37.8607 163.165 39.1802 162.103 39.958C159.881 41.58 158.511 40.0743 157.852 38.0502C157.433 36.9053 157.298 35.6756 157.46 34.4672C157.58 33.5531 157.16 32.8319 157.869 32.1771L157.975 32.0907Z" fill="url(#paint1_linear)"/>
<path d="M153.319 43.4944C156.721 43.4944 159.479 40.0569 159.479 35.8166C159.479 31.5762 156.721 28.1387 153.319 28.1387C149.916 28.1387 147.158 31.5762 147.158 35.8166C147.158 40.0569 149.916 43.4944 153.319 43.4944Z" fill="#606161"/>
<path d="M133.77 56.9988C133.77 56.9988 132.639 55.0045 132.15 54.7087C131.661 54.4129 130.792 53.5919 130.54 53.7781C130.084 54.1104 132.046 55.8521 130.297 55.7225C130.021 55.6992 128.617 55.7225 127.938 56.3573C127.805 56.4836 127.7 56.6367 127.631 56.8064C127.561 56.9761 127.528 57.1586 127.534 57.342C127.54 57.5254 127.585 57.7054 127.665 57.8702C127.746 58.035 127.861 58.181 128.002 58.2984C128.461 58.6108 130.037 58.757 130.889 58.7304C131.74 58.7039 132.738 58.8268 133.317 59.1758" fill="#F5C7C8"/>
<path d="M145.841 48.5365C145.841 48.5365 145.033 51.0758 144.953 52.4485C144.873 53.8212 144.228 59.5879 144.011 59.8704C143.795 60.153 133.444 56.6364 133.444 56.6364C133.444 56.6364 132.818 57.5172 133.317 59.1758C133.317 59.1758 141.004 66.1257 145.658 66.3983C150.312 66.6708 149.713 55.6593 149.713 55.6593" fill="#F5C7C8"/>
<path d="M154.945 121.004L154.09 122.935C154.596 122.762 157.017 124.707 158.108 124.71C158.826 124.68 159.516 124.428 160.084 123.989L159.399 120.489L158.178 103.162L151.615 104.113L154.945 121.004Z" fill="#F5C7C8"/>
<path d="M142.295 120.861L141.034 122.041C141.567 122.001 143.426 124.487 144.484 124.763C145.187 124.913 145.919 124.841 146.579 124.557L146.786 120.994L148.116 104.957L141.646 105.592L142.295 120.861Z" fill="#F5C7C8"/>
<path d="M155.727 40.9385L155.99 46.5157C155.697 46.9412 155.296 47.281 154.828 47.5001C154.361 47.7192 153.843 47.8097 153.329 47.7621C150.634 47.463 150.751 46.6653 150.751 46.6653C150.751 46.6653 150.751 42.6402 150.644 41.7395" fill="#F5C7C8"/>
<path d="M155.085 42.7532L155.707 41.6298L150.647 42.1915C150.687 42.5238 150.714 43.3348 150.727 44.1857C151.513 44.4188 152.352 44.4065 153.13 44.1505C153.909 43.8945 154.591 43.407 155.085 42.7532Z" fill="#DBB4AF"/>
<path d="M159.712 81.3086C159.712 81.3086 160.523 96.6509 161.604 109.068C161.604 109.068 146.756 111.206 140.692 108.829C140.692 108.829 141.996 84.0872 142.268 80.5375L159.712 81.3086Z" fill="#606161"/>
<path d="M159.712 81.3086C159.712 81.3086 160.523 96.6509 161.604 109.068C161.604 109.068 146.756 111.206 140.692 108.829C140.692 108.829 141.996 84.0872 142.268 80.5375L159.712 81.3086Z" fill="url(#paint2_linear)"/>
<path d="M159.715 48.2141C159.715 48.2141 159.689 47.1173 155.886 47.0841C153.116 47.0575 152.148 46.8314 150.178 47.207C146.586 47.8917 146.187 48.1144 145.638 48.5797C144.337 49.6998 142.132 79.8229 142.132 79.8229C142.132 79.8229 139.927 83.4391 151.346 84.6024C155.57 85.0345 159.662 82.1096 159.662 82.1096L159.715 48.2141Z" fill="#EA5455"/>
<path d="M157.829 31.9079C157.829 31.9079 157.606 39.0506 155.527 41.4935C153.335 44.0728 152.088 44.3885 149.427 43.3349C147.165 42.4342 146.895 36.2487 146.819 34.4672C146.623 29.8438 153.714 25.862 157.829 31.9079Z" fill="#F5C7C8"/>
<path d="M159.482 53.1066L159.649 82.0963L157.024 83.6086L156.555 58.0025L159.482 53.1066Z" fill="url(#paint3_linear)"/>
<path d="M157.274 45.8443L157.323 47.1505C157.327 47.2545 157.301 47.3573 157.248 47.4468C157.195 47.5363 157.117 47.6088 157.024 47.6557C157.024 47.6557 154.975 48.3503 151.426 48.5365L148.818 47.8717C148.724 47.8326 148.643 47.768 148.584 47.6851C148.526 47.6022 148.491 47.5045 148.485 47.4031L148.449 46.755C148.441 46.6158 148.487 46.4789 148.576 46.3721C148.666 46.2653 148.793 46.1966 148.931 46.1799L156.652 45.3058C156.729 45.2954 156.807 45.3016 156.882 45.3238C156.956 45.3461 157.025 45.3839 157.084 45.4348C157.143 45.4857 157.19 45.5486 157.223 45.6192C157.256 45.6898 157.273 45.7665 157.274 45.8443Z" fill="#EA5455"/>
<path d="M157.274 45.8443L157.323 47.1505C157.327 47.2545 157.301 47.3573 157.248 47.4468C157.195 47.5363 157.117 47.6088 157.024 47.6557C157.024 47.6557 154.975 48.3503 151.426 48.5365L148.818 47.8717C148.724 47.8326 148.643 47.768 148.584 47.6851C148.526 47.6022 148.491 47.5045 148.485 47.4031L148.449 46.755C148.441 46.6158 148.487 46.4789 148.576 46.3721C148.666 46.2653 148.793 46.1966 148.931 46.1799L156.652 45.3058C156.729 45.2954 156.807 45.3016 156.882 45.3238C156.956 45.3461 157.025 45.3839 157.084 45.4348C157.143 45.4857 157.19 45.5486 157.223 45.6192C157.256 45.6898 157.273 45.7665 157.274 45.8443Z" fill="url(#paint4_linear)"/>
<path d="M157.004 36.4381C157.004 36.4381 157.117 35.3612 158.178 35.8266C159.239 36.2919 158.242 38.1532 157.829 38.675C157.417 39.1968 156.625 39.0306 156.625 39.0306" fill="#F5C7C8"/>
<path d="M158.681 31.4758L159.103 33.1642H158.411L157.829 30.5883L158.681 31.4758Z" fill="#4EAE93"/>
<path d="M159.572 47.915C159.572 47.915 161.135 49.3841 164.013 56.2809C165.187 59.0994 166.168 64.3476 166.168 64.3476C166.168 64.3476 162.157 66.405 159.792 66.405C158.734 60.2727 156.192 57.8962 155.72 55.0677C155.248 52.2392 158.142 47.3699 159.572 47.915Z" fill="#EA5455"/>
<path d="M139.072 122.383C137.913 122.711 136.889 123.4 136.151 124.351C135.857 124.725 135.678 125.177 135.636 125.651C135.618 125.887 135.665 126.124 135.773 126.335C135.88 126.547 136.043 126.725 136.244 126.85C136.525 126.975 136.829 127.034 137.136 127.023C139.978 127.143 142.825 127.093 145.661 126.874C145.78 126.88 145.9 126.861 146.01 126.816C146.121 126.772 146.221 126.704 146.303 126.618C146.378 126.468 146.406 126.299 146.383 126.133L146.303 124.351C146.317 124.152 146.266 123.953 146.157 123.786C145.841 123.4 145.226 123.723 144.73 123.696C143.732 123.643 143.479 122.403 142.658 122.061C141.72 121.669 140.01 122.097 139.072 122.383Z" fill="#EA5455"/>
<path d="M152.919 122.28C151.759 122.605 150.735 123.295 149.999 124.248C149.704 124.622 149.523 125.073 149.48 125.548C149.463 125.784 149.511 126.02 149.619 126.231C149.727 126.442 149.89 126.62 150.092 126.744C150.372 126.87 150.677 126.93 150.983 126.92C153.826 127.041 156.673 126.989 159.509 126.767C159.61 126.79 159.715 126.787 159.815 126.758C159.914 126.729 160.004 126.675 160.077 126.6C160.149 126.526 160.201 126.435 160.228 126.335C160.255 126.235 160.256 126.13 160.231 126.029L160.151 124.245C160.165 124.046 160.113 123.849 160.004 123.683C159.688 123.297 159.073 123.62 158.574 123.593C157.576 123.54 157.327 122.3 156.505 121.955C155.551 121.562 153.844 121.991 152.919 122.28Z" fill="#EA5455"/>
<path d="M139.072 122.383C137.913 122.711 136.889 123.4 136.151 124.351C135.857 124.725 135.678 125.177 135.636 125.651C135.618 125.887 135.665 126.124 135.773 126.335C135.88 126.547 136.043 126.725 136.244 126.85C136.525 126.975 136.829 127.034 137.136 127.023C139.978 127.143 142.825 127.093 145.661 126.874C145.78 126.88 145.9 126.861 146.01 126.816C146.121 126.772 146.221 126.704 146.303 126.618C146.378 126.468 146.406 126.299 146.383 126.133L146.303 124.351C146.317 124.152 146.266 123.953 146.157 123.786C145.841 123.4 145.226 123.723 144.73 123.696C143.732 123.643 143.479 122.403 142.658 122.061C141.72 121.669 140.01 122.097 139.072 122.383Z" fill="url(#paint5_linear)"/>
<path d="M152.919 122.28C151.759 122.605 150.735 123.295 149.999 124.248C149.704 124.622 149.523 125.073 149.48 125.548C149.463 125.784 149.511 126.02 149.619 126.231C149.727 126.442 149.89 126.62 150.092 126.744C150.372 126.87 150.677 126.93 150.983 126.92C153.826 127.041 156.673 126.989 159.509 126.767C159.61 126.79 159.715 126.787 159.815 126.758C159.914 126.729 160.004 126.675 160.077 126.6C160.149 126.526 160.201 126.435 160.228 126.335C160.255 126.235 160.256 126.13 160.231 126.029L160.151 124.245C160.165 124.046 160.113 123.849 160.004 123.683C159.688 123.297 159.073 123.62 158.574 123.593C157.576 123.54 157.327 122.3 156.505 121.955C155.551 121.562 153.844 121.991 152.919 122.28Z" fill="url(#paint6_linear)"/>
<path d="M146.969 30.246C146.859 30.4421 146.756 30.6481 146.653 30.8675C146.372 31.4467 146.238 32.0859 146.263 32.7288C146.263 32.9947 146.779 34.2644 146.729 34.3674C147.415 33.0003 148.431 31.8259 149.686 30.9506C150.159 32.0175 151.306 32.5892 152.347 33.0911C153.388 33.593 154.543 34.2079 154.948 35.3047C155.231 36.0559 155.125 36.9666 155.614 37.6014C156.821 37.4385 157.084 35.4908 158.275 35.2748C158.491 35.2349 158.717 35.2748 158.94 35.215C159.209 35.1358 159.447 34.9736 159.618 34.7516C159.79 34.5295 159.886 34.2589 159.895 33.9785C160.081 31.4625 157.027 29.1259 154.988 28.285C154.044 27.8855 153.03 27.6796 152.005 27.6796C150.98 27.6796 149.965 27.8855 149.021 28.285C148.129 28.6801 147.403 29.3736 146.969 30.246Z" fill="#606161"/>
<path d="M146.969 30.246C146.859 30.4421 146.756 30.6481 146.653 30.8675C146.372 31.4467 146.238 32.0859 146.263 32.7288C146.263 32.9947 146.779 34.2644 146.729 34.3674C147.415 33.0003 148.431 31.8259 149.686 30.9506C150.159 32.0175 151.306 32.5892 152.347 33.0911C153.388 33.593 154.543 34.2079 154.948 35.3047C155.231 36.0559 155.125 36.9666 155.614 37.6014C156.821 37.4385 157.084 35.4908 158.275 35.2748C158.491 35.2349 158.717 35.2748 158.94 35.215C159.209 35.1358 159.447 34.9736 159.618 34.7516C159.79 34.5295 159.886 34.2589 159.895 33.9785C160.081 31.4625 157.027 29.1259 154.988 28.285C154.044 27.8855 153.03 27.6796 152.005 27.6796C150.98 27.6796 149.965 27.8855 149.021 28.285C148.129 28.6801 147.403 29.3736 146.969 30.246Z" fill="url(#paint7_linear)"/>
<path d="M94.2624 18.3802H33.1073C30.1716 18.3802 27.7917 20.7582 27.7917 23.6916V122.699C27.7917 125.632 30.1716 128.01 33.1073 128.01H94.2624C97.1981 128.01 99.5779 125.632 99.5779 122.699V23.6916C99.5779 20.7582 97.1981 18.3802 94.2624 18.3802Z" fill="#EA5455"/>
<path d="M96.3014 18.3802H35.1463C32.2106 18.3802 29.8308 20.7582 29.8308 23.6916V122.699C29.8308 125.632 32.2106 128.01 35.1463 128.01H96.3014C99.2371 128.01 101.617 125.632 101.617 122.699V23.6916C101.617 20.7582 99.2371 18.3802 96.3014 18.3802Z" fill="#EA5455"/>
<path d="M96.3014 18.3802H35.1463C32.2106 18.3802 29.8308 20.7582 29.8308 23.6916V122.699C29.8308 125.632 32.2106 128.01 35.1463 128.01H96.3014C99.2371 128.01 101.617 125.632 101.617 122.699V23.6916C101.617 20.7582 99.2371 18.3802 96.3014 18.3802Z" fill="url(#paint8_linear)"/>
<path d="M35.3159 81.4448L37.1953 23.7049L91.5314 24.8516C91.5314 24.8516 84.4263 84.7852 89.4425 100.254C94.4586 115.723 95.2935 121.526 95.2935 121.526L36.57 123.188L35.3159 81.4448Z" fill="url(#paint9_linear)"/>
<path d="M105.063 116.421L45.6609 117.049C45.6609 117.049 39.5537 81.5944 38.4926 69.7087C37.4515 58.2585 37.212 23.7049 37.212 23.7049H93.9364C93.9364 23.7049 94.0794 57.1915 95.084 68.2862C96.195 80.5275 105.063 116.421 105.063 116.421Z" fill="white"/>
<path d="M131.574 23.0767L127.533 13.9098L127.2 13.1321C127.188 13.1072 127.168 13.0872 127.143 13.0756C127.122 13.054 127.096 13.038 127.068 13.029C127.039 13.0199 127.008 13.0181 126.979 13.0237C126.949 13.0293 126.921 13.0421 126.898 13.061C126.874 13.0799 126.856 13.1043 126.844 13.1321L122.467 23.0767C122.377 23.2868 122.332 23.5131 122.333 23.7415V119.764H131.707V23.7448C131.709 23.5153 131.664 23.2878 131.574 23.0767ZM131.631 119.708H122.387V117.67H131.631V119.708Z" fill="#EA5455"/>
<path d="M130.094 23.7448V117.67H124.349V23.7315C124.345 23.5075 124.371 23.2839 124.426 23.0667L127.11 13.1221C127.11 13.1015 127.117 13.0815 127.13 13.0656C127.187 12.9759 127.286 12.9991 127.32 13.1221L127.533 13.8999L130.004 23.0667C130.064 23.2877 130.095 23.5158 130.094 23.7448Z" fill="url(#paint10_linear)"/>
<path d="M124.349 119.708H130.094V126.628C130.094 127.538 129.635 128.273 129.079 128.273H125.351C124.792 128.273 124.353 127.538 124.353 126.628L124.349 119.708Z" fill="url(#paint11_linear)"/>
<path d="M131.707 23.7448C130.247 24.4563 128.645 24.826 127.02 24.826C125.396 24.826 123.793 24.4563 122.333 23.7448L125.094 17.7155L127.187 13.1454L128.99 17.3831L131.707 23.7448Z" fill="url(#paint12_linear)"/>
<path d="M128.99 17.3698C127.772 17.9398 126.391 18.0577 125.094 17.7022L127.187 13.1321L128.99 17.3698Z" fill="#EA5455"/>
<path d="M128.99 17.3698C127.659 18.0346 125.996 17.9216 124.872 17.6557L126.974 12.7399L128.99 17.3698Z" fill="url(#paint13_linear)"/>
<path d="M71.6797 35.3978H43.6784C43.1585 35.3978 42.7371 35.8182 42.7371 36.3368C42.7371 36.8554 43.1585 37.2757 43.6784 37.2757H71.6797C72.1996 37.2757 72.6211 36.8554 72.6211 36.3368C72.6211 35.8182 72.1996 35.3978 71.6797 35.3978Z" fill="#EA5455"/>
<path d="M71.6797 38.6351H43.6784C43.1585 38.6351 42.7371 39.0555 42.7371 39.5741C42.7371 40.0927 43.1585 40.513 43.6784 40.513H71.6797C72.1996 40.513 72.6211 40.0927 72.6211 39.5741C72.6211 39.0555 72.1996 38.6351 71.6797 38.6351Z" fill="#EA5455"/>
<path d="M71.6797 41.8724H43.6784C43.1585 41.8724 42.7371 42.2928 42.7371 42.8114C42.7371 43.33 43.1585 43.7504 43.6784 43.7504H71.6797C72.1996 43.7504 72.6211 43.33 72.6211 42.8114C72.6211 42.2928 72.1996 41.8724 71.6797 41.8724Z" fill="#EA5455"/>
<path d="M71.8494 45.1097H53.2883C52.8621 45.1097 52.5166 45.455 52.5166 45.8808V46.2165C52.5166 46.6424 52.8621 46.9877 53.2883 46.9877H71.8494C72.2756 46.9877 72.6211 46.6424 72.6211 46.2165V45.8808C72.6211 45.455 72.2756 45.1097 71.8494 45.1097Z" fill="#EA5455"/>
<path d="M71.9924 55.9152H43.9911C43.4712 55.9152 43.0497 56.3356 43.0497 56.8542C43.0497 57.3728 43.4712 57.7931 43.9911 57.7931H71.9924C72.5123 57.7931 72.9337 57.3728 72.9337 56.8542C72.9337 56.3356 72.5123 55.9152 71.9924 55.9152Z" fill="#EA5455"/>
<path d="M71.9924 59.1525H43.9911C43.4712 59.1525 43.0497 59.5729 43.0497 60.0915C43.0497 60.6101 43.4712 61.0304 43.9911 61.0304H71.9924C72.5123 61.0304 72.9337 60.6101 72.9337 60.0915C72.9337 59.5729 72.5123 59.1525 71.9924 59.1525Z" fill="#EA5455"/>
<path d="M71.9924 62.3865H43.9911C43.4712 62.3865 43.0497 62.8069 43.0497 63.3255C43.0497 63.8441 43.4712 64.2645 43.9911 64.2645H71.9924C72.5123 64.2645 72.9337 63.8441 72.9337 63.3255C72.9337 62.8069 72.5123 62.3865 71.9924 62.3865Z" fill="#EA5455"/>
<path d="M72.162 65.6238H53.601C53.1747 65.6238 52.8292 65.9691 52.8292 66.3949V66.7306C52.8292 67.1565 53.1747 67.5018 53.601 67.5018H72.162C72.5882 67.5018 72.9337 67.1565 72.9337 66.7306V66.3949C72.9337 65.9691 72.5882 65.6238 72.162 65.6238Z" fill="#EA5455"/>
<path d="M74.1246 77.3699H46.12C45.8605 77.3621 45.612 77.2637 45.4176 77.0919C45.2231 76.9201 45.095 76.6857 45.0555 76.4293C45.0352 76.3122 45.0413 76.192 45.0732 76.0775C45.1052 75.963 45.1622 75.857 45.2403 75.7673C45.3183 75.6776 45.4153 75.6063 45.5243 75.5587C45.6333 75.5111 45.7516 75.4883 45.8705 75.492H73.8718C74.1315 75.4983 74.3808 75.5957 74.5759 75.767C74.7711 75.9383 74.8998 76.1728 74.9395 76.4293C74.9598 76.5466 74.9537 76.6669 74.9217 76.7816C74.8898 76.8962 74.8328 77.0024 74.7548 77.0923C74.6769 77.1823 74.5799 77.2539 74.4709 77.3019C74.3619 77.3499 74.2436 77.3731 74.1246 77.3699Z" fill="#EA5455"/>
<path d="M74.557 80.6006H46.5524C46.2892 80.5945 46.0368 80.4953 45.84 80.3206C45.6432 80.1459 45.5149 79.9071 45.478 79.6467C45.4583 79.5296 45.4648 79.4097 45.497 79.2955C45.5292 79.1812 45.5863 79.0755 45.6642 78.9859C45.7421 78.8963 45.8388 78.8251 45.9475 78.7773C46.0563 78.7295 46.1742 78.7063 46.2929 78.7094H74.2975C74.5565 78.7171 74.8046 78.815 74.999 78.9861C75.1934 79.1573 75.3218 79.3909 75.362 79.6467C75.3842 79.7641 75.38 79.885 75.3497 80.0006C75.3193 80.1161 75.2636 80.2235 75.1865 80.3149C75.1094 80.4062 75.0129 80.4793 74.904 80.5287C74.7951 80.5781 74.6766 80.6027 74.557 80.6006Z" fill="#EA5455"/>
<path d="M74.9894 83.8313H46.9848C46.7259 83.8236 46.4777 83.7257 46.2834 83.5546C46.089 83.3834 45.9606 83.1498 45.9204 82.894C45.9002 82.7767 45.9062 82.6564 45.9382 82.5418C45.9701 82.4271 46.0271 82.321 46.1051 82.231C46.183 82.141 46.28 82.0695 46.389 82.0215C46.498 81.9735 46.6163 81.9502 46.7353 81.9534H74.7499C75.0094 81.9613 75.2579 82.0596 75.4523 82.2315C75.6468 82.4033 75.7749 82.6377 75.8144 82.894C75.8342 83.0119 75.8276 83.1328 75.7948 83.2477C75.7621 83.3627 75.7041 83.469 75.625 83.5588C75.546 83.6485 75.448 83.7196 75.338 83.7667C75.2281 83.8139 75.109 83.8359 74.9894 83.8313Z" fill="#EA5455"/>
<path d="M75.5915 87.062H57.0304C56.8179 87.0561 56.6141 86.9761 56.4543 86.8359C56.2945 86.6957 56.1889 86.5041 56.1556 86.2942L56.109 85.9618C56.0935 85.8661 56.0991 85.7681 56.1255 85.6747C56.1519 85.5813 56.1984 85.4949 56.2618 85.4214C56.3252 85.3479 56.404 85.2892 56.4925 85.2493C56.581 85.2095 56.6772 85.1895 56.7743 85.1907H75.3387C75.5517 85.1968 75.7559 85.2772 75.9158 85.4181C76.0756 85.559 76.181 85.7514 76.2135 85.9618L76.2568 86.2942C76.2718 86.3897 76.2658 86.4874 76.2391 86.5803C76.2125 86.6733 76.1658 86.7593 76.1025 86.8324C76.0392 86.9055 75.9606 86.9639 75.8724 87.0036C75.7841 87.0432 75.6883 87.0631 75.5915 87.062Z" fill="#EA5455"/>
<path d="M77.5241 97.9272H49.5195C49.2535 97.9159 48.9988 97.8162 48.7958 97.6441C48.5928 97.4719 48.453 97.2371 48.3985 96.9767C48.3697 96.8623 48.3678 96.7428 48.393 96.6276C48.4181 96.5124 48.4695 96.4045 48.5433 96.3125C48.617 96.2204 48.7111 96.1467 48.8182 96.097C48.9252 96.0473 49.0423 96.023 49.1603 96.0261H77.1649C77.4309 96.0374 77.6855 96.1371 77.8885 96.3092C78.0916 96.4814 78.2314 96.7162 78.2859 96.9767C78.3153 97.0911 78.3178 97.2108 78.2929 97.3263C78.2681 97.4418 78.2167 97.55 78.1428 97.6422C78.0689 97.7345 77.9745 97.8082 77.8671 97.8577C77.7597 97.9072 77.6423 97.931 77.5241 97.9272Z" fill="#EA5455"/>
<path d="M78.1461 101.191H50.1349C49.8684 101.18 49.6134 101.08 49.4103 100.907C49.2072 100.734 49.0677 100.498 49.0139 100.237C48.9845 100.123 48.982 100.004 49.0067 99.8884C49.0313 99.7732 49.0824 99.6652 49.1559 99.5731C49.2295 99.4809 49.3234 99.4071 49.4304 99.3574C49.5373 99.3077 49.6544 99.2835 49.7723 99.2867H77.7769C78.0431 99.2975 78.298 99.3969 78.5012 99.5691C78.7043 99.7414 78.8439 99.9766 78.8979 100.237C78.9277 100.351 78.9308 100.47 78.9068 100.585C78.8827 100.701 78.8323 100.809 78.7595 100.901C78.6867 100.993 78.5934 101.068 78.4869 101.118C78.3805 101.168 78.2639 101.193 78.1461 101.191Z" fill="#EA5455"/>
<path d="M78.7649 104.468H50.7602C50.4942 104.457 50.2396 104.357 50.0366 104.185C49.8335 104.013 49.6937 103.778 49.6393 103.518C49.6129 103.404 49.6128 103.286 49.639 103.173C49.6652 103.059 49.7171 102.953 49.7906 102.863C49.8641 102.772 49.9573 102.7 50.063 102.651C50.1688 102.602 50.2844 102.578 50.401 102.581H78.4089C78.6752 102.593 78.93 102.693 79.1329 102.866C79.3359 103.038 79.4755 103.274 79.5299 103.534C79.5558 103.648 79.5554 103.766 79.5287 103.879C79.502 103.993 79.4498 104.098 79.376 104.188C79.3022 104.278 79.2088 104.351 79.1028 104.399C78.9969 104.448 78.8813 104.471 78.7649 104.468Z" fill="#EA5455"/>
<path d="M79.5532 107.746H60.9921C60.7742 107.734 60.5661 107.651 60.3997 107.51C60.2332 107.369 60.1177 107.177 60.0707 106.965L60.0075 106.632C59.9831 106.538 59.9809 106.44 60.0012 106.345C60.0215 106.251 60.0638 106.162 60.1245 106.086C60.1853 106.011 60.2629 105.95 60.3512 105.91C60.4395 105.87 60.5359 105.851 60.6329 105.854H79.194C79.4108 105.867 79.6179 105.949 79.7836 106.089C79.9492 106.23 80.0646 106.42 80.112 106.632L80.1786 106.965C80.2029 107.058 80.205 107.157 80.1847 107.252C80.1643 107.347 80.1221 107.436 80.0615 107.511C80.0008 107.587 79.9232 107.648 79.835 107.688C79.7468 107.729 79.6503 107.749 79.5532 107.746Z" fill="#EA5455"/>
<path d="M85.8334 49.1614H80.2517C79.1819 49.1605 78.1561 48.7355 77.3996 47.9796C76.6431 47.2237 76.2177 46.1987 76.2169 45.1297V39.0971C76.2177 38.0281 76.6431 37.0032 77.3996 36.2473C78.1561 35.4914 79.1819 35.0663 80.2517 35.0654H85.8334C86.9032 35.0663 87.929 35.4914 88.6855 36.2473C89.442 37.0032 89.8674 38.0281 89.8682 39.0971V45.143C89.8638 46.2097 89.4369 47.2313 88.6808 47.9843C87.9247 48.7373 86.9009 49.1605 85.8334 49.1614ZM80.2517 36.1623C79.4765 36.1631 78.7334 36.4712 78.1852 37.0189C77.6371 37.5667 77.3287 38.3093 77.3279 39.0838V45.1297C77.3287 45.9043 77.6371 46.6469 78.1852 47.1946C78.7334 47.7423 79.4765 48.0504 80.2517 48.0513H85.8334C86.6082 48.0504 87.3511 47.7422 87.8987 47.1944C88.4463 46.6466 88.7539 45.904 88.7539 45.1297V39.0971C88.7539 38.3229 88.4463 37.5802 87.8987 37.0324C87.3511 36.4846 86.6082 36.1764 85.8334 36.1756L80.2517 36.1623Z" fill="#EA5455"/>
<path d="M87.3003 69.9181H81.7353C80.6965 69.9191 79.6973 69.5194 78.9462 68.8024C78.1951 68.0853 77.75 67.1062 77.7037 66.0692L77.4376 60.1463C77.4129 59.602 77.4989 59.0583 77.6903 58.548C77.8818 58.0378 78.1748 57.5717 78.5516 57.1778C78.9284 56.7839 79.3812 56.4704 79.8827 56.2562C80.3841 56.0421 80.9238 55.9317 81.4692 55.9318H87.0408C88.0764 55.936 89.0706 56.3385 89.817 57.0559C90.5634 57.7732 91.0046 58.7502 91.0491 59.784L91.3185 65.7036C91.3433 66.248 91.2573 66.7917 91.0658 67.3019C90.8744 67.8121 90.5814 68.2783 90.2046 68.6722C89.8278 69.0661 89.375 69.3796 88.8735 69.5937C88.372 69.8079 87.8323 69.9182 87.287 69.9181H87.3003ZM81.4592 57.0453C81.0642 57.0449 80.6732 57.1245 80.3099 57.2794C79.9466 57.4343 79.6186 57.6612 79.3456 57.9465C79.0725 58.2317 78.8603 58.5693 78.7216 58.9388C78.5829 59.3084 78.5207 59.7022 78.5386 60.0965L78.8081 66.0194C78.8407 66.77 79.1625 67.4791 79.7062 67.9981C80.2499 68.5172 80.9733 68.8062 81.7253 68.8047H87.3003C87.6953 68.8051 88.0862 68.7254 88.4495 68.5705C88.8128 68.4156 89.1409 68.1887 89.4139 67.9035C89.6869 67.6182 89.8992 67.2806 90.0379 66.9111C90.1766 66.5415 90.2388 66.1477 90.2208 65.7535L89.9514 59.8339C89.918 59.0826 89.5956 58.3732 89.0514 57.8537C88.5073 57.3341 87.7835 57.0445 87.0309 57.0453H81.4592Z" fill="#EA5455"/>
<path d="M83.4983 89.116C82.4842 89.1166 81.5072 88.7351 80.7623 88.0475C80.0175 87.3599 79.5596 86.4169 79.48 85.4067L79.0043 79.5005C78.9609 78.9573 79.028 78.4109 79.2016 77.8944C79.3752 77.3778 79.6517 76.9017 80.0144 76.4948C80.3772 76.088 80.8187 75.7587 81.3122 75.527C81.8058 75.2952 82.3412 75.1657 82.8862 75.1464L88.4579 74.9536C89.4923 74.9248 90.4988 75.2911 91.2725 75.9777C92.0462 76.6644 92.5289 77.6198 92.6225 78.6496L93.0981 84.5559C93.1411 85.0989 93.0737 85.6451 92.8999 86.1615C92.7261 86.6778 92.4496 87.1537 92.0869 87.5605C91.7243 87.9673 91.283 88.2965 90.7897 88.5285C90.2963 88.7604 89.7611 88.8901 89.2163 88.91L83.6446 89.1027L83.4983 89.116ZM88.6042 76.0637H88.4978L82.9261 76.2565C82.5315 76.271 82.1439 76.3651 81.7866 76.5331C81.4294 76.7012 81.1098 76.9397 80.8472 77.2344C80.5846 77.5291 80.3844 77.8738 80.2586 78.2478C80.1329 78.6218 80.0841 79.0174 80.1154 79.4107L80.591 85.317C80.6537 86.0651 81.0012 86.7606 81.5619 87.2603C82.1226 87.7599 82.8538 88.0256 83.6047 88.0026L89.1764 87.8065C89.571 87.7929 89.9587 87.6996 90.3162 87.532C90.6737 87.3645 90.9935 87.1263 91.2562 86.8317C91.5189 86.5372 91.7192 86.1925 91.8448 85.8185C91.9704 85.4444 92.0188 85.0488 91.9871 84.6556L91.5115 78.7493C91.4545 78.0181 91.1234 77.3353 90.5844 76.8374C90.0454 76.3395 89.3382 76.0632 88.6042 76.0637Z" fill="#EA5455"/>
<path d="M87.8724 108.69C86.9132 108.69 85.9852 108.349 85.2541 107.729C84.5229 107.108 84.0362 106.248 83.8808 105.303L82.9494 99.5459C82.8574 98.981 82.8869 98.403 83.0359 97.8503C83.1848 97.2976 83.4498 96.783 83.8133 96.3406C84.1767 95.8982 84.6303 95.5382 85.1438 95.2845C85.6572 95.0309 86.2189 94.8894 86.7914 94.8694L92.3131 94.6766C93.2933 94.6514 94.2497 94.9799 95.0072 95.602C95.7647 96.224 96.2726 97.0978 96.4378 98.0635L97.3692 103.82C97.4606 104.385 97.4307 104.963 97.2815 105.515C97.1324 106.068 96.8673 106.582 96.504 107.025C96.1407 107.467 95.6873 107.827 95.1741 108.081C94.6609 108.334 94.0995 108.476 93.5272 108.497L88.0022 108.686L87.8724 108.69ZM92.4628 95.7868H92.3597L86.8379 95.9796C86.4241 95.9954 86.0184 96.0989 85.6477 96.2832C85.2769 96.4675 84.9496 96.7284 84.6873 97.0486C84.425 97.3688 84.2338 97.741 84.1263 98.1406C84.0188 98.5402 83.9975 98.958 84.0637 99.3664L84.9984 105.123C85.1196 105.823 85.4888 106.456 86.0384 106.906C86.5881 107.357 87.2816 107.594 87.9922 107.576L93.5139 107.383C93.9283 107.369 94.335 107.267 94.7068 107.084C95.0786 106.901 95.4071 106.64 95.6702 106.32C95.9334 106 96.1252 105.627 96.2329 105.227C96.3406 104.827 96.3617 104.409 96.2948 104L95.3634 98.2397C95.251 97.5529 94.8972 96.9286 94.3656 96.479C93.8339 96.0294 93.1593 95.784 92.4628 95.7868Z" fill="#EA5455"/>
<path d="M80.2018 21.5112H53.1253C52.0322 21.5112 51.1461 22.3966 51.1461 23.4889V26.5799C51.1461 27.6721 52.0322 28.5575 53.1253 28.5575H80.2018C81.2949 28.5575 82.181 27.6721 82.181 26.5799V23.4889C82.181 22.3966 81.2949 21.5112 80.2018 21.5112Z" fill="#EA5455"/>
<path d="M80.2018 21.5112H53.1253C52.0322 21.5112 51.1461 22.3966 51.1461 23.4889V26.5799C51.1461 27.6721 52.0322 28.5575 53.1253 28.5575H80.2018C81.2949 28.5575 82.181 27.6721 82.181 26.5799V23.4889C82.181 22.3966 81.2949 21.5112 80.2018 21.5112Z" fill="url(#paint14_linear)"/>
<path d="M83.2621 46.6187L78.3856 41.7561C78.2306 41.6011 78.1076 41.4172 78.0236 41.2147C77.9397 41.0123 77.8965 40.7953 77.8965 40.5762C77.8965 40.357 77.9397 40.14 78.0236 39.9376C78.1076 39.7351 78.2306 39.5512 78.3856 39.3962C78.5407 39.2413 78.7248 39.1184 78.9274 39.0345C79.13 38.9507 79.3472 38.9075 79.5665 38.9075C79.7858 38.9075 80.003 38.9507 80.2056 39.0345C80.4082 39.1184 80.5923 39.2413 80.7474 39.3962L83.0758 41.7228L90.8894 32.6923C91.1792 32.3573 91.5903 32.1511 92.0323 32.119C92.4743 32.0869 92.9109 32.2315 93.2462 32.5211C93.5814 32.8107 93.7878 33.2214 93.8199 33.6631C93.852 34.1047 93.7073 34.541 93.4175 34.876L83.2621 46.6187Z" fill="#EA5455"/>
<path d="M85.5606 66.8736L80.6875 62.0043C80.5324 61.8494 80.4094 61.6654 80.3255 61.463C80.2416 61.2605 80.1984 61.0435 80.1984 60.8244C80.1984 60.6053 80.2416 60.3883 80.3255 60.1858C80.4094 59.9834 80.5324 59.7994 80.6875 59.6445C80.8426 59.4895 81.0267 59.3666 81.2293 59.2827C81.4319 59.1989 81.649 59.1557 81.8683 59.1557C82.0876 59.1557 82.3048 59.1989 82.5074 59.2827C82.71 59.3666 82.8941 59.4895 83.0492 59.6445L85.3777 61.9711L93.1913 52.9405C93.4811 52.6055 93.8922 52.3993 94.3342 52.3672C94.7761 52.3351 95.2128 52.4797 95.548 52.7693C95.8832 53.0589 96.0896 53.4697 96.1218 53.9113C96.1539 54.3529 96.0091 54.7892 95.7193 55.1242L85.5606 66.8736Z" fill="#EA5455"/>
<path d="M87.2338 86.1878L82.3573 81.3086C82.0441 80.9956 81.8682 80.5712 81.8682 80.1286C81.8682 79.6861 82.0441 79.2617 82.3573 78.9487C82.6705 78.6358 83.0953 78.46 83.5382 78.46C83.9811 78.46 84.4058 78.6358 84.719 78.9487L87.0475 81.2753L94.8611 72.2447C95.0044 72.0791 95.1789 71.9433 95.3747 71.845C95.5705 71.7468 95.7838 71.688 96.0023 71.6721C96.2209 71.6562 96.4404 71.6835 96.6484 71.7524C96.8564 71.8213 97.0487 71.9304 97.2145 72.0736C97.3803 72.2167 97.5162 72.3911 97.6145 72.5868C97.7129 72.7824 97.7717 72.9955 97.7876 73.2139C97.8035 73.4322 97.7762 73.6516 97.7072 73.8594C97.6383 74.0672 97.5291 74.2595 97.3858 74.4251L87.2338 86.1878Z" fill="#EA5455"/>
<path d="M91.5647 105.608L86.6916 100.736C86.3788 100.423 86.2033 99.9986 86.2036 99.5564C86.2039 99.1141 86.38 98.6901 86.6932 98.3776C87.0064 98.0651 87.431 97.8898 87.8736 97.8901C88.3162 97.8904 88.7405 98.0664 89.0533 98.3793L91.3817 100.706L99.1987 91.6786C99.4885 91.3437 99.8996 91.1375 100.342 91.1053C100.784 91.0732 101.22 91.2179 101.555 91.5075C101.891 91.797 102.097 92.2078 102.129 92.6495C102.161 93.0911 102.017 93.5274 101.727 93.8623L91.5647 105.608Z" fill="#EA5455"/>
<path d="M131.631 117.67H122.39V119.708H131.631V117.67Z" fill="#EA5455"/>
<path d="M131.631 117.67H122.39V119.708H131.631V117.67Z" fill="url(#paint15_linear)"/>
<path d="M131.707 119.764V126.628C131.708 126.845 131.665 127.061 131.581 127.262C131.498 127.463 131.375 127.645 131.22 127.798C131.065 127.951 130.882 128.072 130.68 128.153C130.478 128.235 130.262 128.276 130.044 128.273H123.98C123.764 128.273 123.549 128.231 123.349 128.149C123.149 128.066 122.968 127.945 122.815 127.792C122.662 127.639 122.541 127.458 122.458 127.258C122.375 127.058 122.333 126.844 122.333 126.628V119.764H131.707Z" fill="#EA5455"/>
<path d="M131.707 119.764V126.628C131.708 126.845 131.665 127.061 131.581 127.262C131.498 127.463 131.375 127.645 131.22 127.798C131.065 127.951 130.882 128.072 130.68 128.153C130.478 128.235 130.262 128.276 130.044 128.273H123.98C123.764 128.273 123.549 128.231 123.349 128.149C123.149 128.066 122.968 127.945 122.815 127.792C122.662 127.639 122.541 127.458 122.458 127.258C122.375 127.058 122.333 126.844 122.333 126.628V119.764H131.707Z" fill="url(#paint16_linear)"/>
</g>
<defs>
<linearGradient id="paint0_linear" x1="90.8861" y1="157.668" x2="98.3952" y2="-37.3694" gradientUnits="userSpaceOnUse">
<stop stop-color="#010101" stop-opacity="0"/>
<stop offset="0.95" stop-color="#010101"/>
</linearGradient>
<linearGradient id="paint1_linear" x1="3344.2" y1="1244.59" x2="3223.89" y2="1239.41" gradientUnits="userSpaceOnUse">
<stop stop-color="#010101" stop-opacity="0"/>
<stop offset="0.95" stop-color="#010101"/>
</linearGradient>
<linearGradient id="paint2_linear" x1="9887.94" y1="9323.2" x2="8246.4" y2="9224.72" gradientUnits="userSpaceOnUse">
<stop stop-color="#010101" stop-opacity="0"/>
<stop offset="0.95" stop-color="#010101"/>
</linearGradient>
<linearGradient id="paint3_linear" x1="1568.31" y1="6977.96" x2="2468.51" y2="6885.47" gradientUnits="userSpaceOnUse">
<stop stop-color="#010101" stop-opacity="0"/>
<stop offset="0.95" stop-color="#010101"/>
</linearGradient>
<linearGradient id="paint4_linear" x1="4211.91" y1="594.798" x2="4501.58" y2="170.567" gradientUnits="userSpaceOnUse">
<stop stop-color="#010101" stop-opacity="0"/>
<stop offset="0.95" stop-color="#010101"/>
</linearGradient>
<linearGradient id="paint5_linear" x1="4771.61" y1="2302.11" x2="4722.01" y2="1916.02" gradientUnits="userSpaceOnUse">
<stop stop-color="#010101" stop-opacity="0"/>
<stop offset="0.95" stop-color="#010101"/>
</linearGradient>
<linearGradient id="paint6_linear" x1="5210.45" y1="2249.51" x2="5160.85" y2="1863.17" gradientUnits="userSpaceOnUse">
<stop stop-color="#010101" stop-opacity="0"/>
<stop offset="0.95" stop-color="#010101"/>
</linearGradient>
<linearGradient id="paint7_linear" x1="6622.21" y1="1204.1" x2="6295.73" y2="1420.85" gradientUnits="userSpaceOnUse">
<stop stop-color="#010101" stop-opacity="0"/>
<stop offset="0.95" stop-color="#010101"/>
</linearGradient>
<linearGradient id="paint8_linear" x1="59.9743" y1="-18.5132" x2="71.2429" y2="161.491" gradientUnits="userSpaceOnUse">
<stop stop-color="white" stop-opacity="0"/>
<stop offset="0.14" stop-color="white" stop-opacity="0.22"/>
<stop offset="0.3" stop-color="white" stop-opacity="0.45"/>
<stop offset="0.45" stop-color="white" stop-opacity="0.65"/>
<stop offset="0.6" stop-color="white" stop-opacity="0.8"/>
<stop offset="0.73" stop-color="white" stop-opacity="0.91"/>
<stop offset="0.85" stop-color="white" stop-opacity="0.98"/>
<stop offset="0.94" stop-color="white"/>
</linearGradient>
<linearGradient id="paint9_linear" x1="4168.37" y1="38917.5" x2="47131.2" y2="10362.4" gradientUnits="userSpaceOnUse">
<stop stop-color="#010101" stop-opacity="0"/>
<stop offset="0.95" stop-color="#010101"/>
</linearGradient>
<linearGradient id="paint10_linear" x1="3084.26" y1="18053.1" x2="-2592.9" y2="18178" gradientUnits="userSpaceOnUse">
<stop stop-color="white" stop-opacity="0"/>
<stop offset="0.14" stop-color="white" stop-opacity="0.22"/>
<stop offset="0.3" stop-color="white" stop-opacity="0.45"/>
<stop offset="0.45" stop-color="white" stop-opacity="0.65"/>
<stop offset="0.6" stop-color="white" stop-opacity="0.8"/>
<stop offset="0.73" stop-color="white" stop-opacity="0.91"/>
<stop offset="0.85" stop-color="white" stop-opacity="0.98"/>
<stop offset="0.94" stop-color="white"/>
</linearGradient>
<linearGradient id="paint11_linear" x1="2485.78" y1="3445.76" x2="1457.66" y2="3722.28" gradientUnits="userSpaceOnUse">
<stop stop-color="white" stop-opacity="0"/>
<stop offset="0.14" stop-color="white" stop-opacity="0.22"/>
<stop offset="0.3" stop-color="white" stop-opacity="0.45"/>
<stop offset="0.45" stop-color="white" stop-opacity="0.65"/>
<stop offset="0.6" stop-color="white" stop-opacity="0.8"/>
<stop offset="0.73" stop-color="white" stop-opacity="0.91"/>
<stop offset="0.85" stop-color="white" stop-opacity="0.98"/>
<stop offset="0.94" stop-color="white"/>
</linearGradient>
<linearGradient id="paint12_linear" x1="3732.8" y1="938.603" x2="3696.32" y2="1466.14" gradientUnits="userSpaceOnUse">
<stop stop-color="white" stop-opacity="0"/>
<stop offset="0.14" stop-color="white" stop-opacity="0.22"/>
<stop offset="0.3" stop-color="white" stop-opacity="0.45"/>
<stop offset="0.45" stop-color="white" stop-opacity="0.65"/>
<stop offset="0.6" stop-color="white" stop-opacity="0.8"/>
<stop offset="0.73" stop-color="white" stop-opacity="0.91"/>
<stop offset="0.85" stop-color="white" stop-opacity="0.98"/>
<stop offset="0.94" stop-color="white"/>
</linearGradient>
<linearGradient id="paint13_linear" x1="1696.03" y1="448.31" x2="1789.26" y2="258.587" gradientUnits="userSpaceOnUse">
<stop stop-color="#010101" stop-opacity="0"/>
<stop offset="0.95" stop-color="#010101"/>
</linearGradient>
<linearGradient id="paint14_linear" x1="6279.55" y1="648.775" x2="6278.54" y2="431.803" gradientUnits="userSpaceOnUse">
<stop stop-color="white" stop-opacity="0"/>
<stop offset="0.14" stop-color="white" stop-opacity="0.22"/>
<stop offset="0.3" stop-color="white" stop-opacity="0.45"/>
<stop offset="0.45" stop-color="white" stop-opacity="0.65"/>
<stop offset="0.6" stop-color="white" stop-opacity="0.8"/>
<stop offset="0.73" stop-color="white" stop-opacity="0.91"/>
<stop offset="0.85" stop-color="white" stop-opacity="0.98"/>
<stop offset="0.94" stop-color="white"/>
</linearGradient>
<linearGradient id="paint15_linear" x1="3648.15" y1="829.495" x2="3649" y2="935.861" gradientUnits="userSpaceOnUse">
<stop stop-color="#010101" stop-opacity="0"/>
<stop offset="0.95" stop-color="#010101"/>
</linearGradient>
<linearGradient id="paint16_linear" x1="3722.58" y1="3597" x2="3725.05" y2="3022.31" gradientUnits="userSpaceOnUse">
<stop stop-color="#010101" stop-opacity="0"/>
<stop offset="0.95" stop-color="#010101"/>
</linearGradient>
<clipPath id="clip0">
<rect width="186" height="142" fill="white"/>
</clipPath>
</defs>
</svg>
